<svg width="564" height="275" viewBox="0 0 564 275" fill="none" xmlns="http://www.w3.org/2000/svg">
<path fill-rule="evenodd" clip-rule="evenodd" d="M64.8883 104.033C67.3163 101.164 70.753 99.6836 74.2136 99.6836C77.1185 99.6836 80.0361 100.741 82.3374 102.934L142.108 159.519C146.559 163.747 147.181 170.742 143.292 175.507C123.113 200.26 110.683 229.857 107.445 263.489C106.871 269.342 101.363 274.072 95.4796 274.072H95.3956L11.8648 273.443C5.03376 273.377 -0.504755 267.609 0.0388292 260.801C4.82843 201.244 28.4078 147.01 64.8883 104.033Z" fill="#20AB2C"/>
<path fill-rule="evenodd" clip-rule="evenodd" d="M281.99 0.375C350.421 0.375 413.036 25.1943 461.385 66.3042C466.609 70.7317 466.712 78.7833 461.826 83.5855L403.348 141.168C401.047 143.451 397.972 144.641 394.911 144.641C392.38 144.641 389.867 143.826 387.784 142.122C379.02 134.946 369.626 128.749 359.659 123.593C295.738 94.462 230.862 111.016 192.104 130.571C186.657 134.034 181.406 137.835 176.36 141.965C174.276 143.674 171.751 144.484 169.227 144.484C166.171 144.484 163.102 143.3 160.789 141.017L102.185 83.5855C97.2927 78.7897 97.3767 70.7196 102.608 66.28C150.962 25.1943 213.571 0.375 281.99 0.375Z" fill="#20AB2C"/>
<path fill-rule="evenodd" clip-rule="evenodd" d="M481.678 102.915C483.973 100.728 486.89 99.6582 489.795 99.6582C493.232 99.6582 496.661 101.151 499.09 104.014C535.576 147.002 559.162 201.262 563.94 260.842C564.495 267.626 558.956 273.37 552.149 273.436L468.45 274.064H468.36C462.356 274.064 457.125 269.601 456.563 263.603C453.374 229.88 441.114 200.139 420.911 175.319C417.051 170.578 417.673 163.619 422.106 159.409L481.678 102.915Z" fill="#20AB2C"/>
<path d="M308.544 233.894H322.552V248.985H308.544V274.061H289.737V248.985H241.057L240.516 237.531L289.118 161.377H308.544V233.894ZM260.251 233.894H289.737V186.839L288.344 189.316L260.251 233.894Z" fill="#333333"/>
</svg>
