<svg width="564" height="275" viewBox="0 0 564 275" fill="none" xmlns="http://www.w3.org/2000/svg">
<path fill-rule="evenodd" clip-rule="evenodd" d="M64.8883 104.193C67.3163 101.324 70.753 99.8438 74.2136 99.8438C77.1185 99.8438 80.0361 100.901 82.3374 103.094L142.108 159.679C146.559 163.907 147.181 170.902 143.292 175.667C123.113 200.42 110.683 230.017 107.445 263.649C106.871 269.502 101.363 274.232 95.4796 274.232H95.3956L11.8648 273.603C5.03376 273.537 -0.504755 267.769 0.0388292 260.961C4.82843 201.404 28.4078 147.17 64.8883 104.193Z" fill="#F2994A"/>
<path fill-rule="evenodd" clip-rule="evenodd" d="M281.99 0.535156C350.421 0.535156 413.036 25.3545 461.385 66.4644C466.609 70.8919 466.712 78.9435 461.826 83.7457L403.348 141.328C401.047 143.611 397.972 144.801 394.911 144.801C392.38 144.801 389.867 143.986 387.784 142.282C379.02 135.106 369.626 128.909 359.659 123.753C295.738 94.6222 230.862 111.176 192.104 130.731C186.657 134.194 181.406 137.995 176.36 142.125C174.276 143.834 171.751 144.644 169.227 144.644C166.171 144.644 163.102 143.46 160.789 141.177L102.185 83.7457C97.2927 78.9499 97.3767 70.8798 102.608 66.4402C150.962 25.3545 213.571 0.535156 281.99 0.535156Z" fill="#F2994A"/>
<path fill-rule="evenodd" clip-rule="evenodd" d="M481.678 103.075C483.973 100.888 486.89 99.8184 489.795 99.8184C493.232 99.8184 496.661 101.311 499.09 104.174C535.576 147.162 559.162 201.422 563.94 261.002C564.495 267.786 558.956 273.53 552.149 273.596L468.45 274.224H468.36C462.356 274.224 457.125 269.761 456.563 263.763C453.374 230.04 441.114 200.299 420.911 175.479C417.051 170.738 417.673 163.779 422.106 159.569L481.678 103.075Z" fill="#F2994A"/>
<path d="M308.544 234.054H322.552V249.146H308.544V274.221H289.737V249.146H241.057L240.516 237.691L289.118 161.537H308.544V234.054ZM260.251 234.054H289.737V186.999L288.344 189.476L260.251 234.054Z" fill="#333333"/>
</svg>
