<svg width="564" height="274" viewBox="0 0 564 274" fill="none" xmlns="http://www.w3.org/2000/svg">
<path fill-rule="evenodd" clip-rule="evenodd" d="M64.8883 103.786C67.3163 100.917 70.753 99.4365 74.2136 99.4365C77.1185 99.4365 80.0361 100.494 82.3374 102.687L142.108 159.272C146.559 163.5 147.181 170.495 143.292 175.26C123.113 200.013 110.683 229.61 107.445 263.242C106.871 269.095 101.363 273.825 95.4796 273.825H95.3956L11.8648 273.196C5.03376 273.13 -0.504755 267.362 0.0388292 260.554C4.82843 200.997 28.4078 146.763 64.8883 103.786Z" fill="#E0E0E0"/>
<path fill-rule="evenodd" clip-rule="evenodd" d="M281.99 0.12793C350.421 0.12793 413.036 24.9473 461.385 66.0572C466.609 70.4847 466.712 78.5363 461.826 83.3385L403.348 140.921C401.047 143.204 397.972 144.394 394.911 144.394C392.38 144.394 389.867 143.579 387.784 141.875C379.02 134.699 369.626 128.502 359.659 123.346C295.738 94.215 230.862 110.769 192.104 130.324C186.657 133.787 181.406 137.588 176.36 141.718C174.276 143.427 171.751 144.237 169.227 144.237C166.171 144.237 163.102 143.053 160.789 140.77L102.185 83.3385C97.2927 78.5427 97.3767 70.4726 102.608 66.033C150.962 24.9473 213.571 0.12793 281.99 0.12793Z" fill="#E0E0E0"/>
<path fill-rule="evenodd" clip-rule="evenodd" d="M481.678 102.668C483.973 100.481 486.89 99.4111 489.795 99.4111C493.232 99.4111 496.661 100.904 499.09 103.767C535.576 146.755 559.162 201.015 563.94 260.595C564.495 267.379 558.956 273.123 552.149 273.189L468.45 273.817H468.36C462.356 273.817 457.125 269.354 456.563 263.356C453.374 229.633 441.114 199.892 420.911 175.072C417.051 170.331 417.673 163.372 422.106 159.162L481.678 102.668Z" fill="#E0E0E0"/>
<path d="M308.544 233.647H322.552V248.738H308.544V273.813H289.737V248.738H241.057L240.516 237.284L289.118 161.13H308.544V233.647ZM260.251 233.647H289.737V186.592L288.344 189.069L260.251 233.647Z" fill="#333333"/>
</svg>
