<svg width="564" height="275" viewBox="0 0 564 275" fill="none" xmlns="http://www.w3.org/2000/svg">
<path fill-rule="evenodd" clip-rule="evenodd" d="M64.8883 104.41C67.3163 101.541 70.753 100.061 74.2136 100.061C77.1185 100.061 80.0361 101.118 82.3374 103.311L142.108 159.896C146.559 164.124 147.181 171.119 143.292 175.884C123.113 200.637 110.683 230.234 107.445 263.866C106.871 269.719 101.363 274.449 95.4796 274.449H95.3956L11.8648 273.82C5.03376 273.754 -0.504755 267.986 0.0388292 261.178C4.82843 201.621 28.4078 147.387 64.8883 104.41Z" fill="#828282"/>
<path fill-rule="evenodd" clip-rule="evenodd" d="M281.99 0.751953C350.421 0.751953 413.036 25.5713 461.385 66.6812C466.609 71.1087 466.712 79.1603 461.826 83.9625L403.348 141.545C401.047 143.828 397.972 145.018 394.911 145.018C392.38 145.018 389.867 144.203 387.784 142.499C379.02 135.323 369.626 129.126 359.659 123.97C295.738 94.839 230.862 111.393 192.104 130.948C186.657 134.411 181.406 138.212 176.36 142.342C174.276 144.051 171.751 144.861 169.227 144.861C166.171 144.861 163.102 143.677 160.789 141.394L102.185 83.9625C97.2927 79.1667 97.3767 71.0966 102.608 66.657C150.962 25.5713 213.571 0.751953 281.99 0.751953Z" fill="#828282"/>
<path fill-rule="evenodd" clip-rule="evenodd" d="M481.678 103.292C483.973 101.105 486.89 100.035 489.795 100.035C493.232 100.035 496.661 101.528 499.09 104.391C535.576 147.379 559.162 201.639 563.94 261.219C564.495 268.003 558.956 273.747 552.149 273.813L468.45 274.441H468.36C462.356 274.441 457.125 269.978 456.563 263.98C453.374 230.257 441.114 200.516 420.911 175.696C417.051 170.955 417.673 163.996 422.106 159.786L481.678 103.292Z" fill="#828282"/>
<path d="M308.544 234.271H322.552V249.362H308.544V274.438H289.737V249.362H241.057L240.516 237.908L289.118 161.754H308.544V234.271ZM260.251 234.271H289.737V187.216L288.344 189.693L260.251 234.271Z" fill="#333333"/>
</svg>
