<svg width="565" height="276" viewBox="0 0 565 276" fill="none" xmlns="http://www.w3.org/2000/svg">
<path fill-rule="evenodd" clip-rule="evenodd" d="M65.6442 104.033C68.0722 101.164 71.5089 99.6836 74.9695 99.6836C77.8744 99.6836 80.792 100.741 83.0933 102.934L142.863 159.519C147.314 163.747 147.936 170.742 144.047 175.507C123.868 200.26 111.438 229.857 108.2 263.489C107.626 269.342 102.118 274.072 96.2355 274.072H96.1515L12.6207 273.443C5.78962 273.377 0.251104 267.609 0.794689 260.801C5.58429 201.244 29.1637 147.01 65.6442 104.033Z" fill="#20AB2C"/>
<path fill-rule="evenodd" clip-rule="evenodd" d="M282.745 0.375C351.176 0.375 413.791 25.1943 462.14 66.3042C467.364 70.7317 467.467 78.7833 462.581 83.5855L404.103 141.168C401.802 143.451 398.727 144.641 395.666 144.641C393.135 144.641 390.622 143.826 388.539 142.122C379.775 134.946 370.381 128.749 360.414 123.593C296.493 94.462 231.617 111.016 192.859 130.571C187.412 134.034 182.161 137.835 177.115 141.965C175.031 143.674 172.506 144.484 169.982 144.484C166.926 144.484 163.857 143.3 161.544 141.017L102.94 83.5855C98.0486 78.7897 98.1326 70.7196 103.363 66.28C151.717 25.1943 214.326 0.375 282.745 0.375Z" fill="#20AB2C"/>
<path fill-rule="evenodd" clip-rule="evenodd" d="M482.434 102.915C484.729 100.728 487.646 99.6582 490.551 99.6582C493.988 99.6582 497.417 101.151 499.846 104.014C536.332 147.002 559.918 201.262 564.696 260.842C565.251 267.626 559.712 273.37 552.905 273.436L469.206 274.064H469.116C463.112 274.064 457.881 269.601 457.319 263.603C454.13 229.88 441.87 200.139 421.667 175.319C417.807 170.578 418.429 163.619 422.862 159.409L482.434 102.915Z" fill="#20AB2C"/>
<path d="M250.713 218.183L256.827 161.377H317.348V177.629H272.46L269.365 204.562C274.576 201.569 280.458 200.073 287.01 200.073C297.742 200.073 306.075 203.504 312.008 210.366C317.993 217.229 320.986 226.464 320.986 238.073C320.986 249.527 317.684 258.659 311.079 265.47C304.475 272.229 295.42 275.608 283.915 275.608C273.596 275.608 265.031 272.693 258.22 266.863C251.461 260.981 247.798 253.242 247.23 243.645H265.418C266.14 249.114 268.101 253.319 271.3 256.26C274.498 259.15 278.678 260.594 283.837 260.594C289.616 260.594 294.105 258.53 297.303 254.403C300.554 250.275 302.179 244.651 302.179 237.531C302.179 230.669 300.399 225.252 296.839 221.279C293.279 217.254 288.378 215.242 282.135 215.242C278.729 215.242 275.84 215.707 273.467 216.635C271.093 217.512 268.513 219.267 265.727 221.898L250.713 218.183Z" fill="#333333"/>
</svg>
