<svg width="565" height="276" viewBox="0 0 565 276" fill="none" xmlns="http://www.w3.org/2000/svg">
<path fill-rule="evenodd" clip-rule="evenodd" d="M65.6442 104.193C68.0722 101.324 71.5089 99.8438 74.9695 99.8438C77.8744 99.8438 80.792 100.901 83.0933 103.094L142.863 159.679C147.314 163.907 147.936 170.902 144.047 175.667C123.868 200.42 111.438 230.017 108.2 263.649C107.626 269.502 102.118 274.232 96.2355 274.232H96.1515L12.6207 273.603C5.78962 273.537 0.251104 267.769 0.794689 260.961C5.58429 201.404 29.1637 147.17 65.6442 104.193Z" fill="#F2994A"/>
<path fill-rule="evenodd" clip-rule="evenodd" d="M282.745 0.535156C351.176 0.535156 413.791 25.3545 462.14 66.4644C467.364 70.8919 467.467 78.9435 462.581 83.7457L404.103 141.328C401.802 143.611 398.727 144.801 395.666 144.801C393.135 144.801 390.622 143.986 388.539 142.282C379.775 135.106 370.381 128.909 360.414 123.753C296.493 94.6222 231.617 111.176 192.859 130.731C187.412 134.194 182.161 137.995 177.115 142.125C175.031 143.834 172.506 144.644 169.982 144.644C166.926 144.644 163.857 143.46 161.544 141.177L102.94 83.7457C98.0486 78.9499 98.1326 70.8798 103.363 66.4402C151.717 25.3545 214.326 0.535156 282.745 0.535156Z" fill="#F2994A"/>
<path fill-rule="evenodd" clip-rule="evenodd" d="M482.434 103.075C484.729 100.888 487.646 99.8184 490.551 99.8184C493.988 99.8184 497.417 101.311 499.846 104.174C536.332 147.162 559.918 201.422 564.696 261.002C565.251 267.786 559.712 273.53 552.905 273.596L469.206 274.224H469.116C463.112 274.224 457.881 269.761 457.319 263.763C454.13 230.04 441.87 200.299 421.667 175.479C417.807 170.738 418.429 163.779 422.862 159.569L482.434 103.075Z" fill="#F2994A"/>
<path d="M250.713 218.343L256.827 161.537H317.348V177.79H272.46L269.365 204.722C274.576 201.73 280.458 200.233 287.01 200.233C297.742 200.233 306.075 203.664 312.008 210.527C317.993 217.389 320.986 226.624 320.986 238.233C320.986 249.687 317.684 258.82 311.079 265.63C304.475 272.389 295.42 275.769 283.915 275.769C273.596 275.769 265.031 272.853 258.22 267.023C251.461 261.141 247.798 253.402 247.23 243.805H265.418C266.14 249.274 268.101 253.479 271.3 256.42C274.498 259.31 278.678 260.754 283.837 260.754C289.616 260.754 294.105 258.691 297.303 254.563C300.554 250.435 302.179 244.812 302.179 237.691C302.179 230.829 300.399 225.412 296.839 221.439C293.279 217.415 288.378 215.402 282.135 215.402C278.729 215.402 275.84 215.867 273.467 216.795C271.093 217.673 268.513 219.427 265.727 222.058L250.713 218.343Z" fill="#333333"/>
</svg>
