<svg width="565" height="276" viewBox="0 0 565 276" fill="none" xmlns="http://www.w3.org/2000/svg">
<path fill-rule="evenodd" clip-rule="evenodd" d="M65.6442 103.786C68.0722 100.917 71.5089 99.4365 74.9695 99.4365C77.8744 99.4365 80.792 100.494 83.0933 102.687L142.863 159.272C147.314 163.5 147.936 170.495 144.047 175.26C123.868 200.013 111.438 229.61 108.2 263.242C107.626 269.095 102.118 273.825 96.2355 273.825H96.1515L12.6207 273.196C5.78962 273.13 0.251104 267.362 0.794689 260.554C5.58429 200.997 29.1637 146.763 65.6442 103.786Z" fill="#E0E0E0"/>
<path fill-rule="evenodd" clip-rule="evenodd" d="M282.745 0.12793C351.176 0.12793 413.791 24.9473 462.14 66.0572C467.364 70.4847 467.467 78.5363 462.581 83.3385L404.103 140.921C401.802 143.204 398.727 144.394 395.666 144.394C393.135 144.394 390.622 143.579 388.539 141.875C379.775 134.699 370.381 128.502 360.414 123.346C296.493 94.215 231.617 110.769 192.859 130.324C187.412 133.787 182.161 137.588 177.115 141.718C175.031 143.427 172.506 144.237 169.982 144.237C166.926 144.237 163.857 143.053 161.544 140.77L102.94 83.3385C98.0486 78.5427 98.1326 70.4726 103.363 66.033C151.717 24.9473 214.326 0.12793 282.745 0.12793Z" fill="#E0E0E0"/>
<path fill-rule="evenodd" clip-rule="evenodd" d="M482.434 102.668C484.729 100.481 487.646 99.4111 490.551 99.4111C493.988 99.4111 497.417 100.904 499.846 103.767C536.332 146.755 559.918 201.015 564.696 260.595C565.251 267.379 559.712 273.123 552.905 273.189L469.206 273.817H469.116C463.112 273.817 457.881 269.354 457.319 263.356C454.13 229.633 441.87 199.892 421.667 175.072C417.807 170.331 418.429 163.372 422.862 159.162L482.434 102.668Z" fill="#E0E0E0"/>
<path d="M250.713 217.936L256.827 161.13H317.348V177.382H272.46L269.365 204.315C274.576 201.322 280.458 199.826 287.01 199.826C297.742 199.826 306.075 203.257 312.008 210.119C317.993 216.982 320.986 226.217 320.986 237.826C320.986 249.28 317.684 258.412 311.079 265.223C304.475 271.982 295.42 275.361 283.915 275.361C273.596 275.361 265.031 272.446 258.22 266.616C251.461 260.734 247.798 252.995 247.23 243.398H265.418C266.14 248.867 268.101 253.072 271.3 256.013C274.498 258.903 278.678 260.347 283.837 260.347C289.616 260.347 294.105 258.283 297.303 254.156C300.554 250.028 302.179 244.404 302.179 237.284C302.179 230.422 300.399 225.005 296.839 221.032C293.279 217.007 288.378 214.995 282.135 214.995C278.729 214.995 275.84 215.459 273.467 216.388C271.093 217.265 268.513 219.02 265.727 221.651L250.713 217.936Z" fill="#333333"/>
</svg>
