<svg width="565" height="276" viewBox="0 0 565 276" fill="none" xmlns="http://www.w3.org/2000/svg">
<path fill-rule="evenodd" clip-rule="evenodd" d="M65.6442 104.41C68.0722 101.541 71.5089 100.061 74.9695 100.061C77.8744 100.061 80.792 101.118 83.0933 103.311L142.863 159.896C147.314 164.124 147.936 171.119 144.047 175.884C123.868 200.637 111.438 230.234 108.2 263.866C107.626 269.719 102.118 274.449 96.2355 274.449H96.1515L12.6207 273.82C5.78962 273.754 0.251104 267.986 0.794689 261.178C5.58429 201.621 29.1637 147.387 65.6442 104.41Z" fill="#828282"/>
<path fill-rule="evenodd" clip-rule="evenodd" d="M282.745 0.751953C351.176 0.751953 413.791 25.5713 462.14 66.6812C467.364 71.1087 467.467 79.1603 462.581 83.9625L404.103 141.545C401.802 143.828 398.727 145.018 395.666 145.018C393.135 145.018 390.622 144.203 388.539 142.499C379.775 135.323 370.381 129.126 360.414 123.97C296.493 94.839 231.617 111.393 192.859 130.948C187.412 134.411 182.161 138.212 177.115 142.342C175.031 144.051 172.506 144.861 169.982 144.861C166.926 144.861 163.857 143.677 161.544 141.394L102.94 83.9625C98.0486 79.1667 98.1326 71.0966 103.363 66.657C151.717 25.5713 214.326 0.751953 282.745 0.751953Z" fill="#828282"/>
<path fill-rule="evenodd" clip-rule="evenodd" d="M482.434 103.292C484.729 101.105 487.646 100.035 490.551 100.035C493.988 100.035 497.417 101.528 499.846 104.391C536.332 147.379 559.918 201.639 564.696 261.219C565.251 268.003 559.712 273.747 552.905 273.813L469.206 274.441H469.116C463.112 274.441 457.881 269.978 457.319 263.98C454.13 230.257 441.87 200.516 421.667 175.696C417.807 170.955 418.429 163.996 422.862 159.786L482.434 103.292Z" fill="#828282"/>
<path d="M250.713 218.56L256.827 161.754H317.348V178.006H272.46L269.365 204.939C274.576 201.946 280.458 200.45 287.01 200.45C297.742 200.45 306.075 203.881 312.008 210.743C317.993 217.606 320.986 226.841 320.986 238.45C320.986 249.904 317.684 259.036 311.079 265.847C304.475 272.606 295.42 275.985 283.915 275.985C273.596 275.985 265.031 273.07 258.22 267.24C251.461 261.358 247.798 253.619 247.23 244.022H265.418C266.14 249.491 268.101 253.696 271.3 256.637C274.498 259.527 278.678 260.971 283.837 260.971C289.616 260.971 294.105 258.907 297.303 254.78C300.554 250.652 302.179 245.028 302.179 237.908C302.179 231.046 300.399 225.629 296.839 221.656C293.279 217.631 288.378 215.619 282.135 215.619C278.729 215.619 275.84 216.083 273.467 217.012C271.093 217.889 268.513 219.644 265.727 222.275L250.713 218.56Z" fill="#333333"/>
</svg>
