<svg width="565" height="275" viewBox="0 0 565 275" fill="none" xmlns="http://www.w3.org/2000/svg">
<path fill-rule="evenodd" clip-rule="evenodd" d="M65.4313 104.033C67.8593 101.164 71.296 99.6836 74.7566 99.6836C77.6615 99.6836 80.5791 100.741 82.8804 102.934L142.65 159.519C147.101 163.747 147.723 170.742 143.834 175.507C123.655 200.26 111.225 229.857 107.987 263.489C107.413 269.342 101.905 274.072 96.0226 274.072H95.9386L12.4078 273.443C5.57672 273.377 0.0382134 267.609 0.581798 260.801C5.37139 201.244 28.9508 147.01 65.4313 104.033Z" fill="#20AB2C"/>
<path fill-rule="evenodd" clip-rule="evenodd" d="M282.532 0.375C350.963 0.375 413.578 25.1943 461.927 66.3042C467.151 70.7317 467.254 78.7833 462.368 83.5855L403.89 141.168C401.589 143.451 398.514 144.641 395.453 144.641C392.922 144.641 390.409 143.826 388.326 142.122C379.562 134.946 370.168 128.749 360.201 123.593C296.28 94.462 231.404 111.016 192.646 130.571C187.199 134.034 181.948 137.835 176.902 141.965C174.818 143.674 172.293 144.484 169.769 144.484C166.713 144.484 163.644 143.3 161.331 141.017L102.727 83.5855C97.8357 78.7897 97.9197 70.7196 103.15 66.28C151.504 25.1943 214.113 0.375 282.532 0.375Z" fill="#20AB2C"/>
<path fill-rule="evenodd" clip-rule="evenodd" d="M482.221 102.915C484.516 100.728 487.433 99.6582 490.338 99.6582C493.775 99.6582 497.204 101.151 499.633 104.014C536.119 147.002 559.705 201.262 564.483 260.842C565.038 267.626 559.499 273.37 552.692 273.436L468.993 274.064H468.903C462.899 274.064 457.668 269.601 457.106 263.603C453.917 229.88 441.657 200.139 421.454 175.319C417.594 170.578 418.216 163.619 422.649 159.409L482.221 102.915Z" fill="#20AB2C"/>
<path d="M299.526 274.061H280.797V183.589L253.168 193.031V177.165L297.127 160.99H299.526V274.061Z" fill="#333333"/>
</svg>
