<svg width="565" height="275" viewBox="0 0 565 275" fill="none" xmlns="http://www.w3.org/2000/svg">
<path fill-rule="evenodd" clip-rule="evenodd" d="M65.4313 104.193C67.8593 101.324 71.296 99.8438 74.7566 99.8438C77.6615 99.8438 80.5791 100.901 82.8804 103.094L142.65 159.679C147.101 163.907 147.723 170.902 143.834 175.667C123.655 200.42 111.225 230.017 107.987 263.649C107.413 269.502 101.905 274.232 96.0226 274.232H95.9386L12.4078 273.603C5.57672 273.537 0.0382134 267.769 0.581798 260.961C5.37139 201.404 28.9508 147.17 65.4313 104.193Z" fill="#F2994A"/>
<path fill-rule="evenodd" clip-rule="evenodd" d="M282.532 0.535156C350.963 0.535156 413.578 25.3545 461.927 66.4644C467.151 70.8919 467.254 78.9435 462.368 83.7457L403.89 141.328C401.589 143.611 398.514 144.801 395.453 144.801C392.922 144.801 390.409 143.986 388.326 142.282C379.562 135.106 370.168 128.909 360.201 123.753C296.28 94.6222 231.404 111.176 192.646 130.731C187.199 134.194 181.948 137.995 176.902 142.125C174.818 143.834 172.293 144.644 169.769 144.644C166.713 144.644 163.644 143.46 161.331 141.177L102.727 83.7457C97.8357 78.9499 97.9197 70.8798 103.15 66.4402C151.504 25.3545 214.113 0.535156 282.532 0.535156Z" fill="#F2994A"/>
<path fill-rule="evenodd" clip-rule="evenodd" d="M482.221 103.075C484.516 100.888 487.433 99.8184 490.338 99.8184C493.775 99.8184 497.204 101.311 499.633 104.174C536.119 147.162 559.705 201.422 564.483 261.002C565.038 267.786 559.499 273.53 552.692 273.596L468.993 274.224H468.903C462.899 274.224 457.668 269.761 457.106 263.763C453.917 230.04 441.657 200.299 421.454 175.479C417.594 170.738 418.216 163.779 422.649 159.569L482.221 103.075Z" fill="#F2994A"/>
<path d="M299.526 274.221H280.797V183.749L253.168 193.191V177.325L297.127 161.15H299.526V274.221Z" fill="#333333"/>
</svg>
