<svg width="565" height="274" viewBox="0 0 565 274" fill="none" xmlns="http://www.w3.org/2000/svg">
<path fill-rule="evenodd" clip-rule="evenodd" d="M65.4313 103.786C67.8593 100.917 71.296 99.4365 74.7566 99.4365C77.6615 99.4365 80.5791 100.494 82.8804 102.687L142.65 159.272C147.101 163.5 147.723 170.495 143.834 175.26C123.655 200.013 111.225 229.61 107.987 263.242C107.413 269.095 101.905 273.825 96.0226 273.825H95.9386L12.4078 273.196C5.57672 273.13 0.0382134 267.362 0.581798 260.554C5.37139 200.997 28.9508 146.763 65.4313 103.786Z" fill="#E0E0E0"/>
<path fill-rule="evenodd" clip-rule="evenodd" d="M282.532 0.12793C350.963 0.12793 413.578 24.9473 461.927 66.0572C467.151 70.4847 467.254 78.5363 462.368 83.3385L403.89 140.921C401.589 143.204 398.514 144.394 395.453 144.394C392.922 144.394 390.409 143.579 388.326 141.875C379.562 134.699 370.168 128.502 360.201 123.346C296.28 94.215 231.404 110.769 192.646 130.324C187.199 133.787 181.948 137.588 176.902 141.718C174.818 143.427 172.293 144.237 169.769 144.237C166.713 144.237 163.644 143.053 161.331 140.77L102.727 83.3385C97.8357 78.5427 97.9197 70.4726 103.15 66.033C151.504 24.9473 214.113 0.12793 282.532 0.12793Z" fill="#E0E0E0"/>
<path fill-rule="evenodd" clip-rule="evenodd" d="M482.221 102.668C484.516 100.481 487.433 99.4111 490.338 99.4111C493.775 99.4111 497.204 100.904 499.633 103.767C536.119 146.755 559.705 201.015 564.483 260.595C565.038 267.379 559.499 273.123 552.692 273.189L468.993 273.817H468.903C462.899 273.817 457.668 269.354 457.106 263.356C453.917 229.633 441.657 199.892 421.454 175.072C417.594 170.331 418.216 163.372 422.649 159.162L482.221 102.668Z" fill="#E0E0E0"/>
<path d="M299.526 273.814H280.797V183.342L253.168 192.784V176.918L297.127 160.743H299.526V273.814Z" fill="#333333"/>
</svg>
