<svg width="565" height="275" viewBox="0 0 565 275" fill="none" xmlns="http://www.w3.org/2000/svg">
<path fill-rule="evenodd" clip-rule="evenodd" d="M65.4313 104.41C67.8593 101.541 71.296 100.061 74.7566 100.061C77.6615 100.061 80.5791 101.118 82.8804 103.311L142.65 159.896C147.101 164.124 147.723 171.119 143.834 175.884C123.655 200.637 111.225 230.234 107.987 263.866C107.413 269.719 101.905 274.449 96.0226 274.449H95.9386L12.4078 273.82C5.57672 273.754 0.0382134 267.986 0.581798 261.178C5.37139 201.621 28.9508 147.387 65.4313 104.41Z" fill="#828282"/>
<path fill-rule="evenodd" clip-rule="evenodd" d="M282.532 0.751953C350.963 0.751953 413.578 25.5713 461.927 66.6812C467.151 71.1087 467.254 79.1603 462.368 83.9625L403.89 141.545C401.589 143.828 398.514 145.018 395.453 145.018C392.922 145.018 390.409 144.203 388.326 142.499C379.562 135.323 370.168 129.126 360.201 123.97C296.28 94.839 231.404 111.393 192.646 130.948C187.199 134.411 181.948 138.212 176.902 142.342C174.818 144.051 172.293 144.861 169.769 144.861C166.713 144.861 163.644 143.677 161.331 141.394L102.727 83.9625C97.8357 79.1667 97.9197 71.0966 103.15 66.657C151.504 25.5713 214.113 0.751953 282.532 0.751953Z" fill="#828282"/>
<path fill-rule="evenodd" clip-rule="evenodd" d="M482.221 103.292C484.516 101.105 487.433 100.035 490.338 100.035C493.775 100.035 497.204 101.528 499.633 104.391C536.119 147.379 559.705 201.639 564.483 261.219C565.038 268.003 559.499 273.747 552.692 273.813L468.993 274.441H468.903C462.899 274.441 457.668 269.978 457.106 263.98C453.917 230.257 441.657 200.516 421.454 175.696C417.594 170.955 418.216 163.996 422.649 159.786L482.221 103.292Z" fill="#828282"/>
<path d="M299.526 274.438H280.797V183.966L253.168 193.408V177.542L297.127 161.367H299.526V274.438Z" fill="#333333"/>
</svg>
