<svg width="89" height="15" viewBox="0 0 89 15" fill="none" xmlns="http://www.w3.org/2000/svg">
<path d="M88.763 7.47144L82.2588 13.9756C82.099 14.1358 81.8396 14.1358 81.6796 13.9756L80.5822 12.8782C80.422 12.7182 80.4223 12.459 80.5822 12.2988L84.515 8.366L1.29241 8.36598C1.06617 8.36598 0.882814 8.18262 0.882814 7.95638L0.882814 6.40406C0.882814 6.17782 1.06617 5.9943 1.29241 5.9943L84.5148 5.99432L80.5779 2.05752C80.4179 1.89752 80.4179 1.63816 80.5779 1.47816L81.6753 0.380717C81.8353 0.220557 82.0947 0.220717 82.2547 0.380717L88.763 6.88904C88.8435 6.96936 88.8831 7.07496 88.8828 7.1804C88.8831 7.28552 88.8435 7.39128 88.763 7.47144Z" fill="#03344E"/>
</svg>
