<svg width="24" height="17" viewBox="0 0 24 17" fill="none" xmlns="http://www.w3.org/2000/svg">
<path d="M2.14601 15.3294V15.3294H2.14857L22.2927 15.3294L22.2953 15.3294C22.4753 15.33 22.6518 15.2795 22.8043 15.1838C22.9568 15.0881 23.079 14.9511 23.1567 14.7887C23.2344 14.6263 23.2644 14.4452 23.2433 14.2664C23.2222 14.0876 23.1507 13.9185 23.0373 13.7787L23.0341 13.7747L12.9627 1.18543C12.9626 1.18535 12.9626 1.18528 12.9625 1.1852C12.8734 1.07419 12.7605 0.984594 12.6322 0.923017C12.5037 0.861399 12.3631 0.829408 12.2206 0.829408C12.0782 0.829408 11.9375 0.861398 11.8091 0.923018C11.6807 0.984635 11.5677 1.07431 11.4786 1.18543L1.40716 13.7747L1.40717 13.7747L1.40395 13.7787C1.29053 13.9185 1.21911 14.0876 1.19798 14.2664C1.17685 14.4452 1.20689 14.6263 1.2846 14.7887C1.36231 14.9511 1.48451 15.0881 1.63699 15.1838C1.78947 15.2795 1.96598 15.33 2.14601 15.3294ZM2.14857 16.0794H22.2927C22.6147 16.0805 22.9303 15.9902 23.203 15.8191C23.4757 15.6479 23.6942 15.4029 23.8332 15.1124C23.9722 14.822 24.0259 14.4981 23.9881 14.1784C23.9503 13.8587 23.8226 13.5562 23.6198 13.3062L2.14857 16.0794Z" fill="#03344E" stroke="#03344E" stroke-width="1.5"/>
</svg>
