<svg width="24" height="16" viewBox="0 0 24 16" fill="none" xmlns="http://www.w3.org/2000/svg">
<path d="M22.2954 0.750006V0.75001H22.2928L2.1487 0.750014L2.14615 0.750006C1.96612 0.749392 1.78961 0.799872 1.63712 0.895586C1.48464 0.991297 1.36244 1.12831 1.28473 1.29071C1.20703 1.4531 1.17699 1.63421 1.19811 1.813C1.21924 1.99179 1.29066 2.16092 1.40408 2.30073L1.40729 2.30471L11.4787 14.894C11.4788 14.8941 11.4788 14.8941 11.4789 14.8942C11.568 15.0052 11.6809 15.0948 11.8092 15.1564C11.9377 15.218 12.0783 15.25 12.2208 15.25C12.3632 15.25 12.5039 15.218 12.6323 15.1564C12.7607 15.0948 12.8737 15.0051 12.9628 14.894L23.0342 2.30471L23.0342 2.3047L23.0375 2.30073C23.1509 2.16092 23.2223 1.99179 23.2434 1.813C23.2646 1.63422 23.2345 1.4531 23.1568 1.29071C23.0791 1.12831 22.9569 0.991296 22.8044 0.895585C22.6519 0.799873 22.4754 0.749392 22.2954 0.750006ZM22.2928 9.89314e-06H2.1487C1.82675 -0.00108785 1.51109 0.0891901 1.2384 0.260355C0.965708 0.431521 0.747179 0.676548 0.608204 0.966968C0.469231 1.25739 0.415516 1.58128 0.453297 1.90101C0.491077 2.22075 0.618805 2.5232 0.82164 2.77323L22.2928 9.89314e-06Z" stroke="#03344E" stroke-width="1.5"/>
</svg>
