<svg width="14" height="13" viewBox="0 0 14 13" fill="none" xmlns="http://www.w3.org/2000/svg">
<path d="M12.2807 7.06166V10.7448C12.2807 11.1918 12.1603 11.6206 11.946 11.9367C11.7317 12.2528 11.4411 12.4304 11.1381 12.4304H1.99711C1.69407 12.4304 1.40344 12.2528 1.18916 11.9367C0.974875 11.6206 0.854492 11.1918 0.854492 10.7448V2.92343C0.854492 2.47637 0.974875 2.04762 1.18916 1.7315C1.40344 1.41539 1.69407 1.23779 1.99711 1.23779H5.85916" stroke="white" stroke-linecap="round" stroke-linejoin="bevel"/>
<path d="M10.8666 1.01126C10.7891 0.935282 10.6969 0.874978 10.5954 0.833825C10.4938 0.792672 10.3848 0.771484 10.2748 0.771484C10.1648 0.771484 10.0558 0.792672 9.95424 0.833825C9.85266 0.874978 9.76047 0.935282 9.68298 1.01126L4.68174 5.87486L4.59838 8.30666C4.59707 8.33112 4.60119 8.35557 4.61048 8.37833C4.61977 8.4011 4.63399 8.42165 4.65219 8.43858C4.67039 8.45551 4.69214 8.46842 4.71594 8.47643C4.73973 8.48444 4.76503 8.48736 4.7901 8.48499L7.29072 8.40393L12.292 3.54033C12.4362 3.38897 12.5156 3.18981 12.5141 2.98346C12.5125 2.77712 12.4301 2.57911 12.2836 2.42981L10.8666 1.01126Z" stroke="white" stroke-linecap="round" stroke-linejoin="round"/>
</svg>
