<svg width="22" height="29" viewBox="0 0 22 29" fill="none" xmlns="http://www.w3.org/2000/svg">
<path d="M10.673 0.866943C10.7275 0.866943 10.7891 0.88586 10.8344 0.920732L17.0202 5.68644C17.0822 5.73416 17.117 5.80146 17.117 5.88008C17.117 5.959 17.0822 6.03645 17.0202 6.08448L10.8344 10.8394C10.7445 10.9089 10.613 10.9187 10.5224 10.8502C10.4319 10.782 10.3945 10.6545 10.4364 10.549L11.6843 7.39693H10.2105C6.59873 7.60983 3.7235 10.6068 3.7235 14.2712C3.7235 16.3084 4.61682 18.2277 6.17628 19.5425L4.22912 21.8554C1.9869 19.965 0.700562 17.2014 0.700562 14.2712C0.700562 9.43952 4.17796 5.40961 8.75816 4.53535C8.96708 4.48611 9.23238 4.45347 9.47893 4.42778C9.8506 4.38526 10.2366 4.35247 10.6193 4.35247V4.37399H11.6843L10.4364 1.22195C10.3948 1.11642 10.4319 0.988947 10.5224 0.920732C10.5677 0.886778 10.6192 0.866943 10.673 0.866943ZM18.58 7.74118C20.5671 9.63224 21.6568 12.1847 21.6568 14.9274C21.6568 19.7587 18.1803 23.789 13.5992 24.6632C13.3899 24.7125 13.1246 24.7558 12.8784 24.7815C12.5067 24.8241 12.1211 24.8461 11.7381 24.8461V24.8246L10.673 24.8353L11.921 27.9874C11.9629 28.0932 11.9254 28.2099 11.8349 28.2778C11.7896 28.3118 11.7381 28.3316 11.6843 28.3316C11.6298 28.3316 11.5685 28.3127 11.5229 28.2778L5.33718 23.5121C5.27508 23.4644 5.24036 23.3971 5.24036 23.3185C5.24036 23.2399 5.27508 23.1618 5.33718 23.1141L11.5229 18.3591C11.6128 18.2897 11.7443 18.2903 11.8349 18.3591C11.9254 18.4273 11.9626 18.5441 11.921 18.6496L10.673 21.8016H12.1469C15.758 21.5884 18.6338 18.5914 18.6338 14.9274C18.6338 13.0207 17.8748 11.2505 16.493 9.93577L18.58 7.74118Z" fill="white"/>
</svg>
