<svg width="72" height="36" viewBox="0 0 72 36" fill="none" xmlns="http://www.w3.org/2000/svg">
<path d="M9.46781 15.9385L15.7045 21.8451C13.2967 25.0305 11.8131 28.6734 11.2862 32.7006L2.53729 32.6343C3.21891 26.4997 5.59999 20.7655 9.46781 15.9385ZM9.3969 13.1099C8.96003 13.1099 8.52621 13.2967 8.21971 13.6588C3.61461 19.0835 0.638073 25.9294 0.0334636 33.447C-0.0351554 34.3063 0.663996 35.0344 1.52631 35.0428L12.0708 35.1221C12.0746 35.1221 12.0784 35.1221 12.0814 35.1221C12.824 35.1221 13.5194 34.5251 13.5918 33.7863C14.0005 29.5411 15.5696 25.8051 18.1168 22.6807C18.6079 22.0791 18.5293 21.1962 17.9674 20.6625L10.4224 13.5201C10.1319 13.2433 9.76363 13.1099 9.3969 13.1099Z" fill="#828282"/>
<path d="M61.7868 15.9393C65.6531 20.7655 68.0326 26.5013 68.7158 32.6343L59.9684 32.7006C59.4438 28.6529 57.9708 25.0016 55.5783 21.8268L61.7868 15.9393ZM61.8577 13.1069C61.4909 13.1069 61.1227 13.2418 60.833 13.5178L53.3131 20.6488C52.7534 21.1803 52.6749 22.0586 53.1621 22.6571C55.7125 25.7899 57.2602 29.5441 57.6628 33.8008C57.7337 34.5579 58.3939 35.1213 59.1518 35.1213C59.1564 35.1213 59.1594 35.1213 59.1632 35.1213L69.729 35.042C70.5883 35.0337 71.2875 34.3086 71.2173 33.4524C70.6142 25.9317 67.6369 19.0828 63.0311 13.6566C62.7246 13.2952 62.2915 13.1069 61.8577 13.1069Z" fill="#828282"/>
<path d="M58.2713 8.89667C52.1681 3.70755 44.2639 0.574707 35.6255 0.574707C26.9887 0.574707 19.0853 3.70755 12.9813 8.89362C12.321 9.45401 12.3103 10.4726 12.9279 11.078L20.3258 18.3272C20.6178 18.6154 21.0051 18.7648 21.3909 18.7648C21.7096 18.7648 22.0283 18.6627 22.2913 18.4469C24.844 16.3578 27.8137 14.9336 31.1226 14.2604L31.5625 11.7314C27.8419 12.3429 24.4048 13.8014 21.4428 16.0437L15.3494 10.0716C21.0989 5.49774 28.2574 2.98933 35.6255 2.98933C42.9952 2.98933 50.1552 5.49774 55.9055 10.0762L49.8259 16.0605C47.1619 14.0423 44.1191 12.6593 40.8353 11.9517L41.2836 14.5333C44.1389 15.2874 46.7251 16.6201 48.9803 18.4667C49.2434 18.6817 49.5605 18.7847 49.88 18.7847C50.2666 18.7847 50.6546 18.6345 50.9451 18.3463L58.327 11.078C58.9438 10.4719 58.9309 9.45553 58.2713 8.89667Z" fill="#828282"/>
<path d="M21.501 16.0517C26.2973 12.7077 38.6587 8.02614 49.7333 16.0517" stroke="#828282"/>
<path d="M21.501 18.068C26.2973 14.7241 38.6587 10.0425 49.7333 18.068" stroke="#828282"/>
<rect x="31.3703" y="12.5873" width="1.9434" height="0.832386" fill="#828282" stroke="#828282" stroke-width="0.832386"/>
<rect x="33.5109" y="12.1874" width="1.9434" height="0.832386" fill="#828282" stroke="#828282" stroke-width="0.832386"/>
<rect x="35.863" y="12.1874" width="1.9434" height="0.832386" fill="#828282" stroke="#828282" stroke-width="0.832386"/>
<rect x="38.2624" y="12.1874" width="1.9434" height="0.832386" fill="#828282" stroke="#828282" stroke-width="0.832386"/>
<rect x="39.3918" y="12.5873" width="1.9434" height="0.832386" fill="#828282" stroke="#828282" stroke-width="0.832386"/>
<path d="M9.38062 14.9941C4.40712 17.0499 2.08616 28.1186 1.54736 33.396L12.2404 34.0177V32.4428L13.9397 26.8476L17.0066 22.2057L9.38062 14.9941Z" fill="#828282"/>
<path d="M19.7644 5.22041L13.8135 9.55952L20.8801 17.122L25.9631 14.3946L32.1618 12.535H41.7079L49.5183 17.122L57.0808 9.55952L53.8574 6.95608L48.7745 3.98068L38.7325 1.3772L28.3186 2.24499L19.7644 5.22041Z" fill="#828282"/>
<path d="M62.0605 14.5159L54.2651 21.5267L55.1545 23.4625L57.7705 28.0143L59.0785 34.0311H69.7516V32.0429L67.8158 25.9739L65.3568 19.3293L62.0605 14.5159Z" fill="#828282"/>
</svg>
