<svg width="73" height="36" viewBox="0 0 73 36" fill="none" xmlns="http://www.w3.org/2000/svg">
<path d="M10.4248 15.9385L16.6615 21.8451C14.2538 25.0305 12.7701 28.6734 12.2432 32.7006L3.49432 32.6343C4.17594 26.4997 6.55702 20.7655 10.4248 15.9385ZM10.3539 13.1099C9.91706 13.1099 9.48324 13.2967 9.17674 13.6588C4.57164 19.0835 1.5951 25.9294 0.990495 33.447C0.921876 34.3063 1.62103 35.0344 2.48334 35.0428L13.0278 35.1221C13.0316 35.1221 13.0354 35.1221 13.0385 35.1221C13.7811 35.1221 14.4764 34.5251 14.5488 33.7863C14.9575 29.5411 16.5266 25.8051 19.0739 22.6807C19.5649 22.0791 19.4864 21.1962 18.9244 20.6625L11.3794 13.5201C11.0889 13.2433 10.7207 13.1099 10.3539 13.1099Z" fill="#E0E0E0"/>
<path d="M62.7438 15.9393C66.6101 20.7655 68.9896 26.5013 69.6727 32.6343L60.9254 32.7006C60.4008 28.6529 58.9278 25.0016 56.5353 21.8268L62.7438 15.9393ZM62.8147 13.1069C62.4479 13.1069 62.0797 13.2418 61.79 13.5178L54.2701 20.6488C53.7105 21.1803 53.6319 22.0586 54.1191 22.6571C56.6695 25.7899 58.2172 29.5441 58.6198 33.8008C58.6907 34.5579 59.3509 35.1213 60.1088 35.1213C60.1134 35.1213 60.1164 35.1213 60.1202 35.1213L70.686 35.042C71.5453 35.0337 72.2444 34.3086 72.1743 33.4524C71.5712 25.9317 68.5939 19.0828 63.9881 13.6566C63.6816 13.2952 63.2485 13.1069 62.8147 13.1069Z" fill="#E0E0E0"/>
<path d="M59.2283 8.89667C53.125 3.70755 45.2209 0.574707 36.5825 0.574707C27.9457 0.574707 20.0423 3.70755 13.9383 8.89362C13.278 9.45401 13.2674 10.4726 13.8849 11.078L21.2828 18.3272C21.5748 18.6154 21.9621 18.7648 22.3479 18.7648C22.6666 18.7648 22.9853 18.6627 23.2484 18.4469C25.801 16.3578 28.7707 14.9336 32.0796 14.2604L32.5195 11.7314C28.7989 12.3429 25.3618 13.8014 22.3998 16.0437L16.3064 10.0716C22.0559 5.49774 29.2144 2.98933 36.5825 2.98933C43.9522 2.98933 51.1122 5.49774 56.8625 10.0762L50.7828 16.0605C48.1189 14.0423 45.076 12.6593 41.7922 11.9517L42.2406 14.5333C45.0959 15.2874 47.682 16.6201 49.9373 18.4667C50.2004 18.6817 50.5175 18.7847 50.837 18.7847C51.2235 18.7847 51.6116 18.6345 51.9021 18.3463L59.284 11.078C59.9008 10.4719 59.8878 9.45553 59.2283 8.89667Z" fill="#E0E0E0"/>
<path d="M22.458 16.0517C27.2544 12.7077 39.6157 8.02614 50.6903 16.0517" stroke="#E0E0E0"/>
<path d="M22.458 18.068C27.2544 14.7241 39.6157 10.0425 50.6903 18.068" stroke="#E0E0E0"/>
<rect x="32.3273" y="12.5873" width="1.9434" height="0.832386" fill="#E0E0E0" stroke="#E0E0E0" stroke-width="0.832386"/>
<rect x="34.468" y="12.1874" width="1.9434" height="0.832386" fill="#E0E0E0" stroke="#E0E0E0" stroke-width="0.832386"/>
<rect x="36.82" y="12.1874" width="1.9434" height="0.832386" fill="#E0E0E0" stroke="#E0E0E0" stroke-width="0.832386"/>
<rect x="39.2194" y="12.1874" width="1.9434" height="0.832386" fill="#E0E0E0" stroke="#E0E0E0" stroke-width="0.832386"/>
<rect x="40.3488" y="12.5873" width="1.9434" height="0.832386" fill="#E0E0E0" stroke="#E0E0E0" stroke-width="0.832386"/>
<path d="M10.3376 14.9941C5.36415 17.0499 3.04319 28.1186 2.50439 33.396L13.1974 34.0177V32.4428L14.8967 26.8476L17.9637 22.2057L10.3376 14.9941Z" fill="#E0E0E0"/>
<path d="M20.7214 5.22041L14.7705 9.55952L21.8371 17.122L26.9201 14.3946L33.1188 12.535H42.6649L50.4753 17.122L58.0378 9.55952L54.8145 6.95608L49.7315 3.98068L39.6895 1.3772L29.2756 2.24499L20.7214 5.22041Z" fill="#E0E0E0"/>
<path d="M63.0176 14.5159L55.2222 21.5267L56.1115 23.4625L58.7275 28.0143L60.0355 34.0311H70.7087V32.0429L68.7728 25.9739L66.3138 19.3293L63.0176 14.5159Z" fill="#E0E0E0"/>
</svg>
