<svg width="31" height="31" viewBox="0 0 31 31" fill="none" xmlns="http://www.w3.org/2000/svg">
<g clip-path="url(#clip0)">
<path d="M17.4511 16.9161H18.6347V17.8009H17.4511V19.7814H16.3612V17.8009H12.4765V17.1622L16.2968 11.2501H17.4511V16.9161ZM13.7069 16.9161H16.3612V12.7325L16.2323 12.9669L13.7069 16.9161Z" fill="#333333"/>
<path fill-rule="evenodd" clip-rule="evenodd" d="M3.62217 5.71443C3.75563 5.55673 3.94454 5.47538 4.13475 5.47538C4.29443 5.47538 4.4548 5.53348 4.58129 5.65402L7.86667 8.76432C8.11132 8.99672 8.14551 9.38121 7.93175 9.64313C6.82257 11.0037 6.13933 12.6306 5.96135 14.4792C5.9298 14.8009 5.62704 15.0609 5.30368 15.0609H5.29906L0.707637 15.0264C0.332155 15.0227 0.0277203 14.7057 0.0575995 14.3315C0.320868 11.0578 1.61695 8.07674 3.62217 5.71443Z" fill="#F2994A"/>
<path fill-rule="evenodd" clip-rule="evenodd" d="M15.5565 0.0157471C19.3179 0.0157471 22.7597 1.37999 25.4173 3.63967C25.7044 3.88304 25.7101 4.32561 25.4415 4.58957L22.2272 7.75469C22.1007 7.88018 21.9317 7.94559 21.7634 7.94559C21.6243 7.94559 21.4861 7.90079 21.3716 7.80712C20.8899 7.41268 20.3736 7.07205 19.8257 6.78864C16.3122 5.18741 12.7461 6.09733 10.6157 7.1722C10.3163 7.36255 10.0277 7.57148 9.75034 7.79849C9.63579 7.89243 9.497 7.93696 9.35826 7.93696C9.19028 7.93696 9.02159 7.87188 8.89445 7.74639L5.67317 4.58957C5.40428 4.32596 5.4089 3.88237 5.69642 3.63834C8.35429 1.37999 11.7957 0.0157471 15.5565 0.0157471Z" fill="#F2994A"/>
<path fill-rule="evenodd" clip-rule="evenodd" d="M26.5318 5.65206C26.6579 5.53184 26.8183 5.47303 26.9779 5.47303C27.1669 5.47303 27.3553 5.5551 27.4888 5.71247C29.4944 8.07538 30.7908 11.0579 31.0534 14.3328C31.084 14.7057 30.7795 15.0214 30.4053 15.0251L25.8047 15.0596H25.7997C25.4697 15.0596 25.1822 14.8143 25.1513 14.4846C24.976 12.6309 24.3021 10.9962 23.1916 9.63188C22.9794 9.37128 23.0136 8.98876 23.2573 8.75735L26.5318 5.65206Z" fill="#F2994A"/>
<path fill-rule="evenodd" clip-rule="evenodd" d="M3.62217 25.318C3.75563 25.4757 3.94454 25.5571 4.13475 25.5571C4.29443 25.5571 4.4548 25.499 4.58129 25.3784L7.86667 22.2681C8.11132 22.0357 8.14551 21.6512 7.93175 21.3893C6.82257 20.0287 6.13933 18.4019 5.96135 16.5532C5.9298 16.2315 5.62704 15.9715 5.30368 15.9715H5.29906L0.707637 16.0061C0.332155 16.0097 0.0277203 16.3268 0.0575995 16.701C0.320868 19.9746 1.61695 22.9557 3.62217 25.318Z" fill="#F2994A"/>
<path fill-rule="evenodd" clip-rule="evenodd" d="M15.5555 31.0157C19.317 31.0157 22.7587 29.6515 25.4163 27.3918C25.7035 27.1485 25.7091 26.7059 25.4406 26.4419L22.2262 23.2768C22.0997 23.1513 21.9307 23.0859 21.7625 23.0859C21.6233 23.0859 21.4852 23.1307 21.3707 23.2244C20.889 23.6188 20.3726 23.9594 19.8248 24.2429C16.3112 25.8441 12.7452 24.9342 10.6148 23.8593C10.3154 23.6689 10.0268 23.46 9.74939 23.233C9.63484 23.1391 9.49605 23.0945 9.35731 23.0945C9.18933 23.0945 9.02064 23.1596 8.8935 23.2851L5.67223 26.4419C5.40334 26.7055 5.40796 27.1491 5.69548 27.3932C8.35334 29.6515 11.7948 31.0157 15.5555 31.0157Z" fill="#F2994A"/>
<path fill-rule="evenodd" clip-rule="evenodd" d="M26.5318 25.3794C26.6579 25.4996 26.8183 25.5585 26.9779 25.5585C27.1669 25.5585 27.3553 25.4764 27.4888 25.319C29.4944 22.9561 30.7908 19.9736 31.0534 16.6987C31.084 16.3258 30.7795 16.0101 30.4053 16.0064L25.8047 15.9719H25.7997C25.4697 15.9719 25.1822 16.2172 25.1513 16.5469C24.976 18.4006 24.3021 20.0353 23.1916 21.3996C22.9794 21.6602 23.0136 22.0427 23.2573 22.2741L26.5318 25.3794Z" fill="#F2994A"/>
</g>
<defs>
<clipPath id="clip0">
<rect width="31" height="31" fill="white"/>
</clipPath>
</defs>
</svg>
