<svg width="31" height="31" viewBox="0 0 31 31" fill="none" xmlns="http://www.w3.org/2000/svg">
<path d="M17.1286 19.7622H16.0448V12.5779L13.8714 13.3762V12.3973L16.9596 11.2378H17.1286V19.7622Z" fill="#333333"/>
<path fill-rule="evenodd" clip-rule="evenodd" d="M3.5666 5.69868C3.70006 5.54098 3.88896 5.45963 4.07918 5.45963C4.23885 5.45963 4.39923 5.51773 4.52572 5.63827L7.81109 8.74857C8.05575 8.98097 8.08994 9.36546 7.87618 9.62738C6.767 10.988 6.08376 12.6148 5.90578 14.4635C5.87423 14.7852 5.57147 15.0452 5.24811 15.0452H5.24349L0.652064 15.0106C0.276582 15.007 -0.0278522 14.6899 0.00202696 14.3157C0.265296 11.0421 1.56138 8.06099 3.5666 5.69868Z" fill="#20AB2C"/>
<path fill-rule="evenodd" clip-rule="evenodd" d="M15.5009 0C19.2623 0 22.7041 1.36424 25.3617 3.62392C25.6488 3.86729 25.6545 4.30986 25.3859 4.57382L22.1716 7.73894C22.0451 7.86443 21.8761 7.92984 21.7078 7.92984C21.5687 7.92984 21.4306 7.88504 21.3161 7.79138C20.8343 7.39693 20.318 7.05631 19.7701 6.7729C16.2566 5.17167 12.6906 6.08158 10.5602 7.15645C10.2608 7.34681 9.97213 7.55573 9.69477 7.78275C9.58021 7.87669 9.44142 7.92121 9.30269 7.92121C9.13471 7.92121 8.96601 7.85613 8.83888 7.73064L5.6176 4.57382C5.34871 4.31021 5.35333 3.86662 5.64085 3.62259C8.29872 1.36424 11.7401 0 15.5009 0Z" fill="#20AB2C"/>
<path fill-rule="evenodd" clip-rule="evenodd" d="M26.4762 5.63632C26.6023 5.5161 26.7627 5.45729 26.9224 5.45729C27.1113 5.45729 27.2998 5.53936 27.4333 5.69673C29.4388 8.05964 30.7352 11.0421 30.9979 14.3171C31.0284 14.69 30.7239 15.0057 30.3498 15.0093L25.7491 15.0438H25.7441C25.4141 15.0438 25.1266 14.7985 25.0957 14.4688C24.9204 12.6152 24.2465 10.9804 23.136 9.61614C22.9239 9.35554 22.958 8.97303 23.2017 8.74161L26.4762 5.63632Z" fill="#20AB2C"/>
<path fill-rule="evenodd" clip-rule="evenodd" d="M3.5666 25.3023C3.70006 25.46 3.88896 25.5413 4.07918 25.5413C4.23885 25.5413 4.39923 25.4832 4.52572 25.3627L7.81109 22.2524C8.05575 22.02 8.08994 21.6355 7.87618 21.3736C6.767 20.013 6.08376 18.3861 5.90578 16.5375C5.87423 16.2158 5.57147 15.9558 5.24811 15.9558H5.24349L0.652064 15.9903C0.276582 15.994 -0.0278522 16.311 0.00202696 16.6852C0.265296 19.9589 1.56138 22.94 3.5666 25.3023Z" fill="#20AB2C"/>
<path fill-rule="evenodd" clip-rule="evenodd" d="M15.5 31C19.2614 31 22.7032 29.6358 25.3607 27.3761C25.6479 27.1327 25.6536 26.6901 25.385 26.4262L22.1706 23.2611C22.0442 23.1356 21.8751 23.0702 21.7069 23.0702C21.5678 23.0702 21.4296 23.115 21.3151 23.2086C20.8334 23.6031 20.317 23.9437 19.7692 24.2271C16.2557 25.8283 12.6896 24.9184 10.5592 23.8435C10.2598 23.6532 9.97118 23.4443 9.69382 23.2173C9.57927 23.1233 9.44048 23.0788 9.30174 23.0788C9.13376 23.0788 8.96507 23.1439 8.83793 23.2694L5.61665 26.4262C5.34777 26.6898 5.35238 27.1334 5.6399 27.3774C8.29777 29.6358 11.7392 31 15.5 31Z" fill="#20AB2C"/>
<path fill-rule="evenodd" clip-rule="evenodd" d="M26.4762 25.3637C26.6024 25.4839 26.7627 25.5427 26.9224 25.5427C27.1113 25.5427 27.2998 25.4606 27.4333 25.3033C29.4388 22.9404 30.7353 19.9579 30.9979 16.6829C31.0284 16.31 30.724 15.9943 30.3498 15.9907L25.7491 15.9562H25.7442C25.4142 15.9562 25.1266 16.2015 25.0957 16.5312C24.9204 18.3848 24.2465 20.0196 23.1361 21.3839C22.9239 21.6445 22.9581 22.027 23.2017 22.2584L26.4762 25.3637Z" fill="#20AB2C"/>
</svg>
