<svg width="565" height="275" viewBox="0 0 565 275" fill="none" xmlns="http://www.w3.org/2000/svg">
<path fill-rule="evenodd" clip-rule="evenodd" d="M65.6578 104.033C68.0858 101.164 71.5225 99.6836 74.9831 99.6836C77.888 99.6836 80.8056 100.741 83.1069 102.934L142.877 159.519C147.328 163.747 147.95 170.742 144.061 175.507C123.882 200.26 111.452 229.857 108.214 263.489C107.64 269.342 102.132 274.072 96.2491 274.072H96.1651L12.6343 273.443C5.80329 273.377 0.264776 267.609 0.80836 260.801C5.59796 201.244 29.1773 147.01 65.6578 104.033Z" fill="#20AB2C"/>
<path fill-rule="evenodd" clip-rule="evenodd" d="M282.759 0.375C351.19 0.375 413.805 25.1943 462.154 66.3042C467.378 70.7317 467.481 78.7833 462.595 83.5855L404.117 141.168C401.816 143.451 398.741 144.641 395.68 144.641C393.149 144.641 390.636 143.826 388.553 142.122C379.789 134.946 370.395 128.749 360.428 123.593C296.507 94.462 231.631 111.016 192.873 130.571C187.426 134.034 182.175 137.835 177.129 141.965C175.045 143.674 172.52 144.484 169.996 144.484C166.94 144.484 163.871 143.3 161.558 141.017L102.954 83.5855C98.0622 78.7897 98.1462 70.7196 103.377 66.28C151.731 25.1943 214.34 0.375 282.759 0.375Z" fill="#20AB2C"/>
<path fill-rule="evenodd" clip-rule="evenodd" d="M482.447 102.915C484.742 100.728 487.659 99.6582 490.564 99.6582C494.001 99.6582 497.43 101.151 499.859 104.014C536.345 147.002 559.931 201.262 564.709 260.842C565.264 267.626 559.725 273.37 552.918 273.436L469.219 274.064H469.129C463.125 274.064 457.894 269.601 457.332 263.603C454.143 229.88 441.883 200.139 421.68 175.319C417.82 170.578 418.442 163.619 422.875 159.409L482.447 102.915Z" fill="#20AB2C"/>
<path d="M321.464 274.06H245.696V261.135L283.232 220.194C288.649 214.158 292.493 209.127 294.763 205.103C297.085 201.027 298.246 196.951 298.246 192.875C298.246 187.509 296.724 183.175 293.68 179.873C290.687 176.571 286.637 174.92 281.529 174.92C275.441 174.92 270.72 176.777 267.366 180.492C264.013 184.207 262.336 189.289 262.336 195.738H243.529C243.529 188.876 245.077 182.711 248.173 177.241C251.32 171.721 255.783 167.438 261.562 164.394C267.392 161.35 274.099 159.828 281.684 159.828C292.622 159.828 301.238 162.588 307.533 168.109C313.879 173.578 317.052 181.163 317.052 190.863C317.052 196.486 315.453 202.394 312.254 208.585C309.107 214.725 303.921 221.716 296.698 229.559L269.146 259.045H321.464V274.06Z" fill="#333333"/>
</svg>
