<svg width="565" height="275" viewBox="0 0 565 275" fill="none" xmlns="http://www.w3.org/2000/svg">
<path fill-rule="evenodd" clip-rule="evenodd" d="M65.6578 104.193C68.0858 101.324 71.5225 99.8438 74.9831 99.8438C77.888 99.8438 80.8056 100.901 83.1069 103.094L142.877 159.679C147.328 163.907 147.95 170.902 144.061 175.667C123.882 200.42 111.452 230.017 108.214 263.649C107.64 269.502 102.132 274.232 96.2491 274.232H96.1651L12.6343 273.603C5.80329 273.537 0.264776 267.769 0.80836 260.961C5.59796 201.404 29.1773 147.17 65.6578 104.193Z" fill="#F2994A"/>
<path fill-rule="evenodd" clip-rule="evenodd" d="M282.759 0.535156C351.19 0.535156 413.805 25.3545 462.154 66.4644C467.378 70.8919 467.481 78.9435 462.595 83.7457L404.117 141.328C401.816 143.611 398.741 144.801 395.68 144.801C393.149 144.801 390.636 143.986 388.553 142.282C379.789 135.106 370.395 128.909 360.428 123.753C296.507 94.6222 231.631 111.176 192.873 130.731C187.426 134.194 182.175 137.995 177.129 142.125C175.045 143.834 172.52 144.644 169.996 144.644C166.94 144.644 163.871 143.46 161.558 141.177L102.954 83.7457C98.0622 78.9499 98.1462 70.8798 103.377 66.4402C151.731 25.3545 214.34 0.535156 282.759 0.535156Z" fill="#F2994A"/>
<path fill-rule="evenodd" clip-rule="evenodd" d="M482.447 103.075C484.742 100.888 487.659 99.8184 490.564 99.8184C494.001 99.8184 497.43 101.311 499.859 104.174C536.345 147.162 559.931 201.422 564.709 261.002C565.264 267.786 559.725 273.53 552.918 273.596L469.219 274.224H469.129C463.125 274.224 457.894 269.761 457.332 263.763C454.143 230.04 441.883 200.299 421.68 175.479C417.82 170.738 418.442 163.779 422.875 159.569L482.447 103.075Z" fill="#F2994A"/>
<path d="M321.464 274.22H245.696V261.295L283.232 220.354C288.649 214.318 292.493 209.287 294.763 205.263C297.085 201.187 298.246 197.111 298.246 193.035C298.246 187.669 296.724 183.335 293.68 180.033C290.687 176.731 286.637 175.08 281.529 175.08C275.441 175.08 270.72 176.937 267.366 180.652C264.013 184.367 262.336 189.449 262.336 195.898H243.529C243.529 189.036 245.077 182.871 248.173 177.402C251.32 171.881 255.783 167.599 261.562 164.554C267.392 161.51 274.099 159.988 281.684 159.988C292.622 159.988 301.238 162.749 307.533 168.269C313.879 173.738 317.052 181.323 317.052 191.023C317.052 196.647 315.453 202.554 312.254 208.746C309.107 214.885 303.921 221.877 296.698 229.719L269.146 259.206H321.464V274.22Z" fill="#333333"/>
</svg>
