<svg width="565" height="274" viewBox="0 0 565 274" fill="none" xmlns="http://www.w3.org/2000/svg">
<path fill-rule="evenodd" clip-rule="evenodd" d="M65.6578 103.786C68.0858 100.917 71.5225 99.4365 74.9831 99.4365C77.888 99.4365 80.8056 100.494 83.1069 102.687L142.877 159.272C147.328 163.5 147.95 170.495 144.061 175.26C123.882 200.013 111.452 229.61 108.214 263.242C107.64 269.095 102.132 273.825 96.2491 273.825H96.1651L12.6343 273.196C5.80329 273.13 0.264776 267.362 0.80836 260.554C5.59796 200.997 29.1773 146.763 65.6578 103.786Z" fill="#E0E0E0"/>
<path fill-rule="evenodd" clip-rule="evenodd" d="M282.759 0.12793C351.19 0.12793 413.805 24.9473 462.154 66.0572C467.378 70.4847 467.481 78.5363 462.595 83.3385L404.117 140.921C401.816 143.204 398.741 144.394 395.68 144.394C393.149 144.394 390.636 143.579 388.553 141.875C379.789 134.699 370.395 128.502 360.428 123.346C296.507 94.215 231.631 110.769 192.873 130.324C187.426 133.787 182.175 137.588 177.129 141.718C175.045 143.427 172.52 144.237 169.996 144.237C166.94 144.237 163.871 143.053 161.558 140.77L102.954 83.3385C98.0622 78.5427 98.1462 70.4726 103.377 66.033C151.731 24.9473 214.34 0.12793 282.759 0.12793Z" fill="#E0E0E0"/>
<path fill-rule="evenodd" clip-rule="evenodd" d="M482.447 102.668C484.742 100.481 487.659 99.4111 490.564 99.4111C494.001 99.4111 497.43 100.904 499.859 103.767C536.345 146.755 559.931 201.015 564.709 260.595C565.264 267.379 559.725 273.123 552.918 273.189L469.219 273.817H469.129C463.125 273.817 457.894 269.354 457.332 263.356C454.143 229.633 441.883 199.892 421.68 175.072C417.82 170.331 418.442 163.372 422.875 159.162L482.447 102.668Z" fill="#E0E0E0"/>
<path d="M321.464 273.813H245.696V260.889L283.232 219.948C288.649 213.912 292.493 208.881 294.763 204.857C297.085 200.781 298.246 196.705 298.246 192.629C298.246 187.263 296.724 182.929 293.68 179.627C290.687 176.325 286.637 174.674 281.529 174.674C275.441 174.674 270.72 176.531 267.366 180.246C264.013 183.961 262.336 189.043 262.336 195.492H243.529C243.529 188.63 245.077 182.464 248.173 176.995C251.32 171.475 255.783 167.192 261.562 164.148C267.392 161.104 274.099 159.582 281.684 159.582C292.622 159.582 301.238 162.342 307.533 167.863C313.879 173.332 317.052 180.917 317.052 190.616C317.052 196.24 315.453 202.148 312.254 208.339C309.107 214.479 303.921 221.47 296.698 229.313L269.146 258.799H321.464V273.813Z" fill="#333333"/>
</svg>
