<svg width="565" height="275" viewBox="0 0 565 275" fill="none" xmlns="http://www.w3.org/2000/svg">
<path fill-rule="evenodd" clip-rule="evenodd" d="M65.6578 104.41C68.0858 101.541 71.5225 100.061 74.9831 100.061C77.888 100.061 80.8056 101.118 83.1069 103.311L142.877 159.896C147.328 164.124 147.95 171.119 144.061 175.884C123.882 200.637 111.452 230.234 108.214 263.866C107.64 269.719 102.132 274.449 96.2491 274.449H96.1651L12.6343 273.82C5.80329 273.754 0.264776 267.986 0.80836 261.178C5.59796 201.621 29.1773 147.387 65.6578 104.41Z" fill="#828282"/>
<path fill-rule="evenodd" clip-rule="evenodd" d="M282.759 0.751953C351.19 0.751953 413.805 25.5713 462.154 66.6812C467.378 71.1087 467.481 79.1603 462.595 83.9625L404.117 141.545C401.816 143.828 398.741 145.018 395.68 145.018C393.149 145.018 390.636 144.203 388.553 142.499C379.789 135.323 370.395 129.126 360.428 123.97C296.507 94.839 231.631 111.393 192.873 130.948C187.426 134.411 182.175 138.212 177.129 142.342C175.045 144.051 172.52 144.861 169.996 144.861C166.94 144.861 163.871 143.677 161.558 141.394L102.954 83.9625C98.0622 79.1667 98.1462 71.0966 103.377 66.657C151.731 25.5713 214.34 0.751953 282.759 0.751953Z" fill="#828282"/>
<path fill-rule="evenodd" clip-rule="evenodd" d="M482.447 103.292C484.742 101.105 487.659 100.035 490.564 100.035C494.001 100.035 497.43 101.528 499.859 104.391C536.345 147.379 559.931 201.639 564.709 261.219C565.264 268.003 559.725 273.747 552.918 273.813L469.219 274.441H469.129C463.125 274.441 457.894 269.978 457.332 263.98C454.143 230.257 441.883 200.516 421.68 175.696C417.82 170.955 418.442 163.996 422.875 159.786L482.447 103.292Z" fill="#828282"/>
<path d="M321.464 274.438H245.696V261.514L283.232 220.573C288.649 214.537 292.493 209.506 294.763 205.482C297.085 201.406 298.246 197.33 298.246 193.254C298.246 187.888 296.724 183.554 293.68 180.252C290.687 176.95 286.637 175.299 281.529 175.299C275.441 175.299 270.72 177.156 267.366 180.871C264.013 184.586 262.336 189.668 262.336 196.117H243.529C243.529 189.255 245.077 183.089 248.173 177.62C251.32 172.1 255.783 167.817 261.562 164.773C267.392 161.729 274.099 160.207 281.684 160.207C292.622 160.207 301.238 162.967 307.533 168.488C313.879 173.957 317.052 181.542 317.052 191.241C317.052 196.865 315.453 202.773 312.254 208.964C309.107 215.104 303.921 222.095 296.698 229.938L269.146 259.424H321.464V274.438Z" fill="#333333"/>
</svg>
