<svg width="565" height="275" viewBox="0 0 565 275" fill="none" xmlns="http://www.w3.org/2000/svg">
<path fill-rule="evenodd" clip-rule="evenodd" d="M65.4039 104.033C67.8319 101.164 71.2686 99.6836 74.7292 99.6836C77.6341 99.6836 80.5517 100.741 82.853 102.934L142.623 159.519C147.074 163.747 147.696 170.742 143.807 175.507C123.628 200.26 111.198 229.857 107.96 263.489C107.386 269.342 101.878 274.072 95.9952 274.072H95.9112L12.3804 273.443C5.54938 273.377 0.0108696 267.609 0.554454 260.801C5.34405 201.244 28.9234 147.01 65.4039 104.033Z" fill="#20AB2C"/>
<path fill-rule="evenodd" clip-rule="evenodd" d="M282.505 0.375C350.936 0.375 413.551 25.1943 461.9 66.3042C467.124 70.7317 467.227 78.7833 462.341 83.5855L403.863 141.168C401.562 143.451 398.487 144.641 395.426 144.641C392.895 144.641 390.382 143.826 388.299 142.122C379.535 134.946 370.141 128.749 360.174 123.593C296.253 94.462 231.377 111.016 192.619 130.571C187.172 134.034 181.921 137.835 176.875 141.965C174.791 143.674 172.266 144.484 169.742 144.484C166.686 144.484 163.617 143.3 161.304 141.017L102.7 83.5855C97.8083 78.7897 97.8923 70.7196 103.123 66.28C151.477 25.1943 214.086 0.375 282.505 0.375Z" fill="#20AB2C"/>
<path fill-rule="evenodd" clip-rule="evenodd" d="M482.194 102.915C484.489 100.728 487.406 99.6582 490.311 99.6582C493.748 99.6582 497.177 101.151 499.606 104.014C536.092 147.002 559.678 201.262 564.456 260.842C565.011 267.626 559.472 273.37 552.665 273.436L468.966 274.064H468.876C462.872 274.064 457.641 269.601 457.079 263.603C453.89 229.88 441.63 200.139 421.427 175.319C417.567 170.578 418.189 163.619 422.622 159.409L482.194 102.915Z" fill="#20AB2C"/>
<path d="M320.435 171.825L275.392 274.061H255.657L300.622 176.469H242.346V161.377H320.435V171.825Z" fill="#333333"/>
</svg>
