<svg width="565" height="275" viewBox="0 0 565 275" fill="none" xmlns="http://www.w3.org/2000/svg">
<path fill-rule="evenodd" clip-rule="evenodd" d="M65.4039 104.193C67.8319 101.324 71.2686 99.8438 74.7292 99.8438C77.6341 99.8438 80.5517 100.901 82.853 103.094L142.623 159.679C147.074 163.907 147.696 170.902 143.807 175.667C123.628 200.42 111.198 230.017 107.96 263.649C107.386 269.502 101.878 274.232 95.9952 274.232H95.9112L12.3804 273.603C5.54938 273.537 0.0108696 267.769 0.554454 260.961C5.34405 201.404 28.9234 147.17 65.4039 104.193Z" fill="#F2994A"/>
<path fill-rule="evenodd" clip-rule="evenodd" d="M282.505 0.535156C350.936 0.535156 413.551 25.3545 461.9 66.4644C467.124 70.8919 467.227 78.9435 462.341 83.7457L403.863 141.328C401.562 143.611 398.487 144.801 395.426 144.801C392.895 144.801 390.382 143.986 388.299 142.282C379.535 135.106 370.141 128.909 360.174 123.753C296.253 94.6222 231.377 111.176 192.619 130.731C187.172 134.194 181.921 137.995 176.875 142.125C174.791 143.834 172.266 144.644 169.742 144.644C166.686 144.644 163.617 143.46 161.304 141.177L102.7 83.7457C97.8083 78.9499 97.8923 70.8798 103.123 66.4402C151.477 25.3545 214.086 0.535156 282.505 0.535156Z" fill="#F2994A"/>
<path fill-rule="evenodd" clip-rule="evenodd" d="M482.194 103.075C484.489 100.888 487.406 99.8184 490.311 99.8184C493.748 99.8184 497.177 101.311 499.606 104.174C536.092 147.162 559.678 201.422 564.456 261.002C565.011 267.786 559.472 273.53 552.665 273.596L468.966 274.224H468.876C462.872 274.224 457.641 269.761 457.079 263.763C453.89 230.04 441.63 200.299 421.427 175.479C417.567 170.738 418.189 163.779 422.622 159.569L482.194 103.075Z" fill="#F2994A"/>
<path d="M320.435 171.985L275.392 274.221H255.657L300.622 176.629H242.346V161.537H320.435V171.985Z" fill="#333333"/>
</svg>
