<svg width="565" height="274" viewBox="0 0 565 274" fill="none" xmlns="http://www.w3.org/2000/svg">
<path fill-rule="evenodd" clip-rule="evenodd" d="M65.4039 103.786C67.8319 100.917 71.2686 99.4365 74.7292 99.4365C77.6341 99.4365 80.5517 100.494 82.853 102.687L142.623 159.272C147.074 163.5 147.696 170.495 143.807 175.26C123.628 200.013 111.198 229.61 107.96 263.242C107.386 269.095 101.878 273.825 95.9952 273.825H95.9112L12.3804 273.196C5.54938 273.13 0.0108696 267.362 0.554454 260.554C5.34405 200.997 28.9234 146.763 65.4039 103.786Z" fill="#E0E0E0"/>
<path fill-rule="evenodd" clip-rule="evenodd" d="M282.505 0.12793C350.936 0.12793 413.551 24.9473 461.9 66.0572C467.124 70.4847 467.227 78.5363 462.341 83.3385L403.863 140.921C401.562 143.204 398.487 144.394 395.426 144.394C392.895 144.394 390.382 143.579 388.299 141.875C379.535 134.699 370.141 128.502 360.174 123.346C296.253 94.215 231.377 110.769 192.619 130.324C187.172 133.787 181.921 137.588 176.875 141.718C174.791 143.427 172.266 144.237 169.742 144.237C166.686 144.237 163.617 143.053 161.304 140.77L102.7 83.3385C97.8083 78.5427 97.8923 70.4726 103.123 66.033C151.477 24.9473 214.086 0.12793 282.505 0.12793Z" fill="#E0E0E0"/>
<path fill-rule="evenodd" clip-rule="evenodd" d="M482.194 102.668C484.489 100.481 487.406 99.4111 490.311 99.4111C493.748 99.4111 497.177 100.904 499.606 103.767C536.092 146.755 559.678 201.015 564.456 260.595C565.011 267.379 559.472 273.123 552.665 273.189L468.966 273.817H468.876C462.872 273.817 457.641 269.354 457.079 263.356C453.89 229.633 441.63 199.892 421.427 175.072C417.567 170.331 418.189 163.372 422.622 159.162L482.194 102.668Z" fill="#E0E0E0"/>
<path d="M320.435 171.578L275.392 273.813H255.657L300.622 176.221H242.346V161.13H320.435V171.578Z" fill="#333333"/>
</svg>
