<svg width="565" height="275" viewBox="0 0 565 275" fill="none" xmlns="http://www.w3.org/2000/svg">
<path fill-rule="evenodd" clip-rule="evenodd" d="M65.4039 104.41C67.8319 101.541 71.2686 100.061 74.7292 100.061C77.6341 100.061 80.5517 101.118 82.853 103.311L142.623 159.896C147.074 164.124 147.696 171.119 143.807 175.884C123.628 200.637 111.198 230.234 107.96 263.866C107.386 269.719 101.878 274.449 95.9952 274.449H95.9112L12.3804 273.82C5.54938 273.754 0.0108696 267.986 0.554454 261.178C5.34405 201.621 28.9234 147.387 65.4039 104.41Z" fill="#828282"/>
<path fill-rule="evenodd" clip-rule="evenodd" d="M282.505 0.751953C350.936 0.751953 413.551 25.5713 461.9 66.6812C467.124 71.1087 467.227 79.1603 462.341 83.9625L403.863 141.545C401.562 143.828 398.487 145.018 395.426 145.018C392.895 145.018 390.382 144.203 388.299 142.499C379.535 135.323 370.141 129.126 360.174 123.97C296.253 94.839 231.377 111.393 192.619 130.948C187.172 134.411 181.921 138.212 176.875 142.342C174.791 144.051 172.266 144.861 169.742 144.861C166.686 144.861 163.617 143.677 161.304 141.394L102.7 83.9625C97.8083 79.1667 97.8923 71.0966 103.123 66.657C151.477 25.5713 214.086 0.751953 282.505 0.751953Z" fill="#828282"/>
<path fill-rule="evenodd" clip-rule="evenodd" d="M482.194 103.292C484.489 101.105 487.406 100.035 490.311 100.035C493.748 100.035 497.177 101.528 499.606 104.391C536.092 147.379 559.678 201.639 564.456 261.219C565.011 268.003 559.472 273.747 552.665 273.813L468.966 274.441H468.876C462.872 274.441 457.641 269.978 457.079 263.98C453.89 230.257 441.63 200.516 421.427 175.696C417.567 170.955 418.189 163.996 422.622 159.786L482.194 103.292Z" fill="#828282"/>
<path d="M320.435 172.202L275.392 274.438H255.657L300.622 176.845H242.346V161.754H320.435V172.202Z" fill="#333333"/>
</svg>
