<svg width="565" height="276" viewBox="0 0 565 276" fill="none" xmlns="http://www.w3.org/2000/svg">
<path fill-rule="evenodd" clip-rule="evenodd" d="M65.6618 104.033C68.0898 101.164 71.5265 99.6836 74.9871 99.6836C77.892 99.6836 80.8096 100.741 83.1109 102.934L142.881 159.519C147.332 163.747 147.954 170.742 144.065 175.507C123.886 200.26 111.456 229.857 108.218 263.489C107.644 269.342 102.136 274.072 96.2531 274.072H96.1691L12.6383 273.443C5.80719 273.377 0.268682 267.609 0.812267 260.801C5.60186 201.244 29.1813 147.01 65.6618 104.033Z" fill="#20AB2C"/>
<path fill-rule="evenodd" clip-rule="evenodd" d="M282.763 0.375C351.194 0.375 413.809 25.1943 462.158 66.3042C467.382 70.7317 467.485 78.7833 462.599 83.5855L404.121 141.168C401.82 143.451 398.745 144.641 395.684 144.641C393.153 144.641 390.64 143.826 388.557 142.122C379.793 134.946 370.399 128.749 360.432 123.593C296.511 94.462 231.635 111.016 192.877 130.571C187.43 134.034 182.179 137.835 177.133 141.965C175.049 143.674 172.524 144.484 170 144.484C166.944 144.484 163.875 143.3 161.562 141.017L102.958 83.5855C98.0662 78.7897 98.1501 70.7196 103.381 66.28C151.735 25.1943 214.344 0.375 282.763 0.375Z" fill="#20AB2C"/>
<path fill-rule="evenodd" clip-rule="evenodd" d="M482.451 102.915C484.746 100.728 487.663 99.6582 490.568 99.6582C494.005 99.6582 497.434 101.151 499.863 104.014C536.349 147.002 559.935 201.262 564.713 260.842C565.268 267.626 559.729 273.37 552.922 273.436L469.223 274.064H469.133C463.129 274.064 457.898 269.601 457.336 263.603C454.147 229.88 441.887 200.139 421.684 175.319C417.824 170.578 418.446 163.619 422.879 159.409L482.451 102.915Z" fill="#20AB2C"/>
<path d="M267.446 209.127H278.9C284.679 209.076 289.245 207.579 292.599 204.638C296.004 201.698 297.707 197.441 297.707 191.869C297.707 186.503 296.288 182.349 293.45 179.408C290.664 176.416 286.381 174.92 280.603 174.92C275.546 174.92 271.393 176.39 268.143 179.331C264.892 182.22 263.267 186.013 263.267 190.708H244.46C244.46 184.929 245.983 179.666 249.027 174.92C252.122 170.173 256.405 166.484 261.874 163.853C267.394 161.17 273.56 159.828 280.371 159.828C291.618 159.828 300.441 162.666 306.839 168.341C313.288 173.965 316.513 181.808 316.513 191.869C316.513 196.925 314.888 201.698 311.637 206.186C308.438 210.623 304.285 213.977 299.177 216.247C305.368 218.363 310.064 221.691 313.262 226.231C316.513 230.771 318.138 236.189 318.138 242.483C318.138 252.596 314.656 260.645 307.69 266.63C300.776 272.615 291.67 275.607 280.371 275.607C269.536 275.607 260.661 272.718 253.748 266.939C246.834 261.161 243.377 253.473 243.377 243.876H262.183C262.183 248.83 263.834 252.854 267.136 255.95C270.49 259.045 274.979 260.593 280.603 260.593C286.433 260.593 291.025 259.045 294.379 255.95C297.732 252.854 299.409 248.365 299.409 242.483C299.409 236.55 297.655 231.984 294.146 228.785C290.638 225.586 285.427 223.987 278.513 223.987H267.446V209.127Z" fill="#333333"/>
</svg>
