<svg width="565" height="276" viewBox="0 0 565 276" fill="none" xmlns="http://www.w3.org/2000/svg">
<path fill-rule="evenodd" clip-rule="evenodd" d="M65.6618 104.193C68.0898 101.324 71.5265 99.8438 74.9871 99.8438C77.892 99.8438 80.8096 100.901 83.1109 103.094L142.881 159.679C147.332 163.907 147.954 170.902 144.065 175.667C123.886 200.42 111.456 230.017 108.218 263.649C107.644 269.502 102.136 274.232 96.2531 274.232H96.1691L12.6383 273.603C5.80719 273.537 0.268682 267.769 0.812267 260.961C5.60186 201.404 29.1813 147.17 65.6618 104.193Z" fill="#F2994A"/>
<path fill-rule="evenodd" clip-rule="evenodd" d="M282.763 0.535156C351.194 0.535156 413.809 25.3545 462.158 66.4644C467.382 70.8919 467.485 78.9435 462.599 83.7457L404.121 141.328C401.82 143.611 398.745 144.801 395.684 144.801C393.153 144.801 390.64 143.986 388.557 142.282C379.793 135.106 370.399 128.909 360.432 123.753C296.511 94.6222 231.635 111.176 192.877 130.731C187.43 134.194 182.179 137.995 177.133 142.125C175.049 143.834 172.524 144.644 170 144.644C166.944 144.644 163.875 143.46 161.562 141.177L102.958 83.7457C98.0662 78.9499 98.1501 70.8798 103.381 66.4402C151.735 25.3545 214.344 0.535156 282.763 0.535156Z" fill="#F2994A"/>
<path fill-rule="evenodd" clip-rule="evenodd" d="M482.451 103.075C484.746 100.888 487.663 99.8184 490.568 99.8184C494.005 99.8184 497.434 101.311 499.863 104.174C536.349 147.162 559.935 201.422 564.713 261.002C565.268 267.786 559.729 273.53 552.922 273.596L469.223 274.224H469.133C463.129 274.224 457.898 269.761 457.336 263.763C454.147 230.04 441.887 200.299 421.684 175.479C417.824 170.738 418.446 163.779 422.879 159.569L482.451 103.075Z" fill="#F2994A"/>
<path d="M267.446 209.287H278.9C284.679 209.236 289.245 207.74 292.599 204.799C296.004 201.858 297.707 197.601 297.707 192.029C297.707 186.663 296.288 182.51 293.45 179.569C290.664 176.576 286.381 175.08 280.603 175.08C275.546 175.08 271.393 176.55 268.143 179.491C264.892 182.381 263.267 186.173 263.267 190.868H244.46C244.46 185.089 245.983 179.827 249.027 175.08C252.122 170.333 256.405 166.644 261.874 164.013C267.394 161.33 273.56 159.988 280.371 159.988C291.618 159.988 300.441 162.826 306.839 168.501C313.288 174.125 316.513 181.968 316.513 192.029C316.513 197.085 314.888 201.858 311.637 206.346C308.438 210.784 304.285 214.137 299.177 216.407C305.368 218.523 310.064 221.851 313.262 226.391C316.513 230.931 318.138 236.349 318.138 242.644C318.138 252.756 314.656 260.805 307.69 266.79C300.776 272.775 291.67 275.768 280.371 275.768C269.536 275.768 260.661 272.878 253.748 267.1C246.834 261.321 243.377 253.633 243.377 244.037H262.183C262.183 248.99 263.834 253.014 267.136 256.11C270.49 259.206 274.979 260.753 280.603 260.753C286.433 260.753 291.025 259.206 294.379 256.11C297.732 253.014 299.409 248.525 299.409 242.644C299.409 236.71 297.655 232.144 294.146 228.945C290.638 225.746 285.427 224.147 278.513 224.147H267.446V209.287Z" fill="#333333"/>
</svg>
