<svg width="565" height="276" viewBox="0 0 565 276" fill="none" xmlns="http://www.w3.org/2000/svg">
<path fill-rule="evenodd" clip-rule="evenodd" d="M65.6618 103.786C68.0898 100.917 71.5265 99.4365 74.9871 99.4365C77.892 99.4365 80.8096 100.494 83.1109 102.687L142.881 159.272C147.332 163.5 147.954 170.495 144.065 175.26C123.886 200.013 111.456 229.61 108.218 263.242C107.644 269.095 102.136 273.825 96.2531 273.825H96.1691L12.6383 273.196C5.80719 273.13 0.268682 267.362 0.812267 260.554C5.60186 200.997 29.1813 146.763 65.6618 103.786Z" fill="#E0E0E0"/>
<path fill-rule="evenodd" clip-rule="evenodd" d="M282.763 0.12793C351.194 0.12793 413.809 24.9473 462.158 66.0572C467.382 70.4847 467.485 78.5363 462.599 83.3385L404.121 140.921C401.82 143.204 398.745 144.394 395.684 144.394C393.153 144.394 390.64 143.579 388.557 141.875C379.793 134.699 370.399 128.502 360.432 123.346C296.511 94.215 231.635 110.769 192.877 130.324C187.43 133.787 182.179 137.588 177.133 141.718C175.049 143.427 172.524 144.237 170 144.237C166.944 144.237 163.875 143.053 161.562 140.77L102.958 83.3385C98.0662 78.5427 98.1501 70.4726 103.381 66.033C151.735 24.9473 214.344 0.12793 282.763 0.12793Z" fill="#E0E0E0"/>
<path fill-rule="evenodd" clip-rule="evenodd" d="M482.451 102.668C484.746 100.481 487.663 99.4111 490.568 99.4111C494.005 99.4111 497.434 100.904 499.863 103.767C536.349 146.755 559.935 201.015 564.713 260.595C565.268 267.379 559.729 273.123 552.922 273.189L469.223 273.817H469.133C463.129 273.817 457.898 269.354 457.336 263.356C454.147 229.633 441.887 199.892 421.684 175.072C417.824 170.331 418.446 163.372 422.879 159.162L482.451 102.668Z" fill="#E0E0E0"/>
<path d="M267.446 208.881H278.9C284.679 208.83 289.245 207.333 292.599 204.392C296.004 201.451 297.707 197.195 297.707 191.623C297.707 186.257 296.288 182.103 293.45 179.162C290.664 176.17 286.381 174.674 280.603 174.674C275.546 174.674 271.393 176.144 268.143 179.085C264.892 181.974 263.267 185.767 263.267 190.462H244.46C244.46 184.683 245.983 179.42 249.027 174.674C252.122 169.927 256.405 166.238 261.874 163.606C267.394 160.924 273.56 159.582 280.371 159.582C291.618 159.582 300.441 162.42 306.839 168.095C313.288 173.719 316.513 181.562 316.513 191.623C316.513 196.679 314.888 201.451 311.637 205.94C308.438 210.377 304.285 213.731 299.177 216.001C305.368 218.117 310.064 221.444 313.262 225.985C316.513 230.525 318.138 235.943 318.138 242.237C318.138 252.35 314.656 260.399 307.69 266.384C300.776 272.369 291.67 275.361 280.371 275.361C269.536 275.361 260.661 272.472 253.748 266.693C246.834 260.915 243.377 253.227 243.377 243.63H262.183C262.183 248.583 263.834 252.608 267.136 255.704C270.49 258.799 274.979 260.347 280.603 260.347C286.433 260.347 291.025 258.799 294.379 255.704C297.732 252.608 299.409 248.119 299.409 242.237C299.409 236.304 297.655 231.738 294.146 228.539C290.638 225.34 285.427 223.74 278.513 223.74H267.446V208.881Z" fill="#333333"/>
</svg>
