<svg width="565" height="276" viewBox="0 0 565 276" fill="none" xmlns="http://www.w3.org/2000/svg">
<path fill-rule="evenodd" clip-rule="evenodd" d="M65.6618 104.41C68.0898 101.541 71.5265 100.061 74.9871 100.061C77.892 100.061 80.8096 101.118 83.1109 103.311L142.881 159.896C147.332 164.124 147.954 171.119 144.065 175.884C123.886 200.637 111.456 230.234 108.218 263.866C107.644 269.719 102.136 274.449 96.2531 274.449H96.1691L12.6383 273.82C5.80719 273.754 0.268682 267.986 0.812267 261.178C5.60186 201.621 29.1813 147.387 65.6618 104.41Z" fill="#828282"/>
<path fill-rule="evenodd" clip-rule="evenodd" d="M282.763 0.751953C351.194 0.751953 413.809 25.5713 462.158 66.6812C467.382 71.1087 467.485 79.1603 462.599 83.9625L404.121 141.545C401.82 143.828 398.745 145.018 395.684 145.018C393.153 145.018 390.64 144.203 388.557 142.499C379.793 135.323 370.399 129.126 360.432 123.97C296.511 94.839 231.635 111.393 192.877 130.948C187.43 134.411 182.179 138.212 177.133 142.342C175.049 144.051 172.524 144.861 170 144.861C166.944 144.861 163.875 143.677 161.562 141.394L102.958 83.9625C98.0662 79.1667 98.1501 71.0966 103.381 66.657C151.735 25.5713 214.344 0.751953 282.763 0.751953Z" fill="#828282"/>
<path fill-rule="evenodd" clip-rule="evenodd" d="M482.451 103.292C484.746 101.105 487.663 100.035 490.568 100.035C494.005 100.035 497.434 101.528 499.863 104.391C536.349 147.379 559.935 201.639 564.713 261.219C565.268 268.003 559.729 273.747 552.922 273.813L469.223 274.441H469.133C463.129 274.441 457.898 269.978 457.336 263.98C454.147 230.257 441.887 200.516 421.684 175.696C417.824 170.955 418.446 163.996 422.879 159.786L482.451 103.292Z" fill="#828282"/>
<path d="M267.446 209.506H278.9C284.679 209.455 289.245 207.958 292.599 205.017C296.004 202.076 297.707 197.82 297.707 192.248C297.707 186.882 296.288 182.728 293.45 179.787C290.664 176.795 286.381 175.299 280.603 175.299C275.546 175.299 271.393 176.769 268.143 179.71C264.892 182.599 263.267 186.392 263.267 191.087H244.46C244.46 185.308 245.983 180.045 249.027 175.299C252.122 170.552 256.405 166.863 261.874 164.231C267.394 161.549 273.56 160.207 280.371 160.207C291.618 160.207 300.441 163.045 306.839 168.72C313.288 174.344 316.513 182.187 316.513 192.248C316.513 197.304 314.888 202.076 311.637 206.565C308.438 211.002 304.285 214.356 299.177 216.626C305.368 218.742 310.064 222.069 313.262 226.61C316.513 231.15 318.138 236.568 318.138 242.862C318.138 252.975 314.656 261.024 307.69 267.009C300.776 272.994 291.67 275.986 280.371 275.986C269.536 275.986 260.661 273.097 253.748 267.318C246.834 261.54 243.377 253.852 243.377 244.255H262.183C262.183 249.208 263.834 253.233 267.136 256.329C270.49 259.424 274.979 260.972 280.603 260.972C286.433 260.972 291.025 259.424 294.379 256.329C297.732 253.233 299.409 248.744 299.409 242.862C299.409 236.929 297.655 232.363 294.146 229.164C290.638 225.965 285.427 224.365 278.513 224.365H267.446V209.506Z" fill="#333333"/>
</svg>
