<svg width="17" height="15" viewBox="0 0 17 15" fill="none" xmlns="http://www.w3.org/2000/svg">
<path d="M16.554 7.91088L10.0498 14.415C9.88999 14.5752 9.63063 14.5752 9.47063 14.415L8.37319 13.3176C8.21303 13.1576 8.21335 12.8984 8.37319 12.7382L12.306 8.80544H1.08343C0.857188 8.80544 0.673828 8.62208 0.673828 8.39584V6.84352C0.673828 6.61728 0.857188 6.43376 1.08343 6.43376H12.3058L8.36887 2.49696C8.20887 2.33696 8.20887 2.0776 8.36887 1.9176L9.46631 0.820156C9.62631 0.659997 9.88567 0.660156 10.0457 0.820156L16.554 7.32848C16.6345 7.4088 16.6741 7.5144 16.6738 7.61984C16.6741 7.72496 16.6345 7.83072 16.554 7.91088Z" fill="white"/>
</svg>
