<svg width="17" height="15" viewBox="0 0 17 15" fill="none" xmlns="http://www.w3.org/2000/svg">
<path d="M0.332731 7.3235L6.83689 0.819339C6.99673 0.659179 7.25609 0.659179 7.41609 0.819339L8.51353 1.91678C8.67369 2.07678 8.67337 2.33598 8.51353 2.49614L4.58073 6.42894H15.8033C16.0295 6.42894 16.2129 6.6123 16.2129 6.83854V8.39086C16.2129 8.6171 16.0295 8.80062 15.8033 8.80062H4.58089L8.51785 12.7374C8.67785 12.8974 8.67785 13.1568 8.51785 13.3168L7.42041 14.4142C7.26041 14.5744 7.00105 14.5742 6.84105 14.4142L0.332731 7.9059C0.252251 7.82558 0.21257 7.71998 0.212891 7.61454C0.21257 7.50942 0.252251 7.40366 0.332731 7.3235Z" fill="#03344E"/>
</svg>
