<svg width="17" height="15" viewBox="0 0 17 15" fill="none" xmlns="http://www.w3.org/2000/svg">
<path d="M0.582243 6.97828L7.0864 0.474124C7.24624 0.313964 7.5056 0.313964 7.6656 0.474124L8.76304 1.57156C8.9232 1.73156 8.92288 1.99076 8.76304 2.15092L4.83024 6.08372H16.0528C16.279 6.08372 16.4624 6.26708 16.4624 6.49332V8.04564C16.4624 8.27188 16.279 8.4554 16.0528 8.4554H4.8304L8.76736 12.3922C8.92736 12.5522 8.92736 12.8116 8.76736 12.9716L7.66992 14.069C7.50992 14.2292 7.25056 14.229 7.09056 14.069L0.582243 7.56068C0.501762 7.48036 0.462082 7.37476 0.462402 7.26932C0.462082 7.1642 0.501762 7.05844 0.582243 6.97828Z" fill="#0071B8"/>
</svg>
