<svg width="64" height="25" viewBox="0 0 64 25" fill="none" xmlns="http://www.w3.org/2000/svg">
<path d="M0.697966 11.3611L7.20213 4.85694C7.36197 4.69678 7.62133 4.69678 7.78133 4.85694L8.87877 5.95438C9.03893 6.11438 9.03861 6.37358 8.87877 6.53374L4.94597 10.4665H16.1685C16.3948 10.4665 16.5781 10.6499 16.5781 10.8761V12.4285C16.5781 12.6547 16.3948 12.8382 16.1685 12.8382H4.94613L8.88308 16.775C9.04309 16.935 9.04309 17.1944 8.88308 17.3544L7.78565 18.4518C7.62565 18.612 7.36629 18.6118 7.20628 18.4518L0.697966 11.9435C0.617485 11.8632 0.577805 11.7576 0.578125 11.6521C0.577805 11.547 0.617485 11.4413 0.697966 11.3611Z" fill="#0071B8"/>
<path d="M24.5596 18.572V5.77515H28.7432C30.1318 5.77515 31.1748 6.06226 31.8721 6.63647C32.5752 7.21069 32.9268 8.0603 32.9268 9.1853C32.9268 9.78296 32.7568 10.3132 32.417 10.7761C32.0771 11.2332 31.6143 11.5876 31.0283 11.8396C31.7197 12.033 32.2646 12.4021 32.6631 12.947C33.0674 13.4861 33.2695 14.1306 33.2695 14.8806C33.2695 16.0291 32.8975 16.9314 32.1533 17.5876C31.4092 18.2439 30.3574 18.572 28.998 18.572H24.5596ZM26.2471 12.5867V17.1921H29.0332C29.8184 17.1921 30.4365 16.99 30.8877 16.5857C31.3447 16.1755 31.5732 15.613 31.5732 14.8982C31.5732 13.3572 30.7354 12.5867 29.0596 12.5867H26.2471ZM26.2471 11.2332H28.7959C29.5342 11.2332 30.123 11.0486 30.5625 10.6794C31.0078 10.3103 31.2305 9.80933 31.2305 9.17651C31.2305 8.47339 31.0254 7.96362 30.6152 7.64722C30.2051 7.32495 29.5811 7.16382 28.7432 7.16382H26.2471V11.2332ZM41.3906 18.572C41.2969 18.3845 41.2207 18.0505 41.1621 17.5701C40.4062 18.3552 39.5039 18.7478 38.4551 18.7478C37.5176 18.7478 36.7471 18.4841 36.1436 17.9568C35.5459 17.4236 35.2471 16.7498 35.2471 15.9353C35.2471 14.9451 35.6221 14.1775 36.3721 13.6326C37.1279 13.0818 38.1885 12.8064 39.5537 12.8064H41.1357V12.0593C41.1357 11.491 40.9658 11.0398 40.626 10.7058C40.2861 10.366 39.7852 10.196 39.123 10.196C38.543 10.196 38.0566 10.3425 37.6641 10.6355C37.2715 10.9285 37.0752 11.283 37.0752 11.699H35.4404C35.4404 11.2244 35.6074 10.7673 35.9414 10.3279C36.2812 9.88257 36.7383 9.53101 37.3125 9.27319C37.8926 9.01538 38.5283 8.88647 39.2197 8.88647C40.3154 8.88647 41.1738 9.16187 41.7949 9.71265C42.416 10.2576 42.7383 11.0105 42.7617 11.9714V16.3484C42.7617 17.2214 42.873 17.9158 43.0957 18.4314V18.572H41.3906ZM38.6924 17.3328C39.2021 17.3328 39.6855 17.2009 40.1426 16.9373C40.5996 16.6736 40.9307 16.3308 41.1357 15.9089V13.9578H39.8613C37.8691 13.9578 36.873 14.5408 36.873 15.7068C36.873 16.2166 37.043 16.615 37.3828 16.9021C37.7227 17.1892 38.1592 17.3328 38.6924 17.3328ZM49.125 17.4207C49.7051 17.4207 50.2119 17.2449 50.6455 16.8933C51.0791 16.5417 51.3193 16.1023 51.3662 15.575H52.9043C52.875 16.1199 52.6875 16.6384 52.3418 17.1306C51.9961 17.6228 51.5332 18.0154 50.9531 18.3083C50.3789 18.6013 49.7695 18.7478 49.125 18.7478C47.8301 18.7478 46.7988 18.3171 46.0312 17.4558C45.2695 16.5886 44.8887 15.405 44.8887 13.905V13.6326C44.8887 12.7068 45.0586 11.8835 45.3984 11.1628C45.7383 10.4421 46.2246 9.88257 46.8574 9.48413C47.4961 9.08569 48.249 8.88647 49.1162 8.88647C50.1826 8.88647 51.0674 9.20581 51.7705 9.84448C52.4795 10.4832 52.8574 11.3123 52.9043 12.3318H51.3662C51.3193 11.7166 51.085 11.2126 50.6631 10.8201C50.2471 10.4216 49.7314 10.2224 49.1162 10.2224C48.29 10.2224 47.6484 10.5212 47.1914 11.1189C46.7402 11.7107 46.5146 12.5691 46.5146 13.6941V14.0017C46.5146 15.0974 46.7402 15.9412 47.1914 16.533C47.6426 17.1248 48.2871 17.4207 49.125 17.4207ZM57.3867 14.1687L56.3672 15.2322V18.572H54.7412V5.07202H56.3672V13.2371L57.2373 12.1912L60.1992 9.06226H62.1768L58.4766 13.0349L62.6074 18.572H60.7002L57.3867 14.1687Z" fill="#0071B8"/>
</svg>
