<svg width="21" height="22" viewBox="0 0 21 22" fill="none" xmlns="http://www.w3.org/2000/svg">
<path d="M17.3404 2.62219H15.6645V0.946289H14.5475V2.62219H5.61203V0.946289H4.49509V2.62219H2.82018C1.2803 2.62219 0.0273438 3.87514 0.0273438 5.41503V18.2603C0.0273438 19.8002 1.2803 21.0531 2.82018 21.0531H17.3404C18.8802 21.0531 20.1332 19.8002 20.1332 18.2603V8.20687V7.08994V5.41403C20.1322 3.87415 18.8792 2.62219 17.3404 2.62219ZM19.0153 18.2593C19.0153 19.1826 18.2637 19.9342 17.3404 19.9342H2.82018C1.89585 19.9342 1.14428 19.1826 1.14428 18.2593V8.20687H19.0153V18.2593ZM19.0153 7.08994H1.14428V5.41403C1.14428 4.48971 1.89585 3.73813 2.82018 3.73813H4.49608V4.85507H5.61203V3.73913H14.5475V4.85606H15.6645V3.73913H17.3404C18.2637 3.73913 19.0153 4.48971 19.0153 5.41403V7.08994Z" fill="#03344E"/>
</svg>
