<svg width="18" height="12" viewBox="0 0 18 12" fill="none" xmlns="http://www.w3.org/2000/svg">
<path d="M1.80674 0.171387C1.18298 0.171387 0.668945 0.685425 0.668945 1.30919V10.0323C0.668945 10.6561 1.18298 11.1701 1.80674 11.1701H16.2189C16.8426 11.1701 17.3567 10.6561 17.3567 10.0323V1.30919C17.3567 0.685425 16.8426 0.171387 16.2189 0.171387H1.80674ZM2.02008 0.929919H16.0055L9.35651 6.87966C9.19507 7.02416 8.83052 7.02416 8.66909 6.87966L2.02008 0.929919ZM1.42748 1.41585L6.1446 5.64113L1.42748 9.91379V1.41585ZM16.5981 1.41585V9.91379L11.881 5.64113L16.5981 1.41585ZM6.7135 6.15074L8.15945 7.44264C8.64178 7.8744 9.38382 7.8744 9.86615 7.44264L11.3121 6.15074L16.0174 10.4116H2.00823L6.7135 6.15074Z" fill="#03344E"/>
</svg>
