<svg width="67" height="68" viewBox="0 0 67 68" fill="none" xmlns="http://www.w3.org/2000/svg">
<circle cx="33.7066" cy="34.1173" r="31.6871" stroke="#DA1E28" stroke-width="3"/>
<path d="M30.7234 16.619C30.7234 14.9597 32.0685 13.6145 33.7279 13.6145C35.3872 13.6145 36.7324 14.9597 36.7324 16.619V37.6507C36.7324 39.3101 35.3872 40.6552 33.7279 40.6552C32.0685 40.6552 30.7234 39.3101 30.7234 37.6507V16.619Z" fill="#DA1E28"/>
<path d="M33.6946 46.6003H33.7247C35.9316 46.6003 37.7207 48.3894 37.7207 50.5964V50.6264C37.7207 52.8333 35.9316 54.6224 33.7247 54.6224H33.6946C31.4877 54.6224 29.6986 52.8333 29.6986 50.6264V50.5964C29.6986 48.3894 31.4877 46.6003 33.6946 46.6003Z" fill="#DA1E28"/>
</svg>
