<svg width="27" height="24" viewBox="0 0 27 24" fill="none" xmlns="http://www.w3.org/2000/svg">
<path d="M26.436 20.1224C26.4362 20.2306 26.415 20.3378 26.3736 20.4378C26.3323 20.5379 26.2716 20.6288 26.195 20.7053C26.1185 20.7818 26.0276 20.8425 25.9276 20.8839C25.8275 20.9252 25.7203 20.9464 25.6121 20.9463H16.6805C16.4994 21.6447 16.0915 22.2631 15.5208 22.7046C14.9502 23.1461 14.2491 23.3857 13.5276 23.3857C12.8061 23.3857 12.105 23.1461 11.5344 22.7046C10.9637 22.2631 10.5558 21.6447 10.3746 20.9463H1.44308C1.22456 20.9463 1.01499 20.8595 0.860468 20.705C0.705949 20.5505 0.619141 20.3409 0.619141 20.1224C0.619141 19.9038 0.705949 19.6943 0.860468 19.5397C1.01499 19.3852 1.22456 19.2984 1.44308 19.2984H10.3746C10.5558 18.6 10.9637 17.9816 11.5344 17.5401C12.105 17.0986 12.8061 16.859 13.5276 16.859C14.2491 16.859 14.9502 17.0986 15.5208 17.5401C16.0915 17.9816 16.4994 18.6 16.6805 19.2984H25.6121C25.8304 19.2991 26.0396 19.3861 26.194 19.5404C26.3484 19.6948 26.4354 19.904 26.436 20.1224ZM1.44308 5.07165H3.23379C3.41496 5.77003 3.82288 6.3885 4.39352 6.83C4.96417 7.2715 5.66525 7.51104 6.38675 7.51104C7.10824 7.51104 7.80932 7.2715 8.37997 6.83C8.95062 6.3885 9.35853 5.77003 9.5397 5.07165H25.6121C25.8306 5.07165 26.0402 4.98484 26.1947 4.83032C26.3492 4.67581 26.436 4.46623 26.436 4.24771C26.436 4.02918 26.3492 3.81961 26.1947 3.66509C26.0402 3.51057 25.8306 3.42376 25.6121 3.42376H9.5397C9.35853 2.72538 8.95062 2.10692 8.37997 1.66542C7.80932 1.22392 7.10824 0.984375 6.38675 0.984375C5.66525 0.984375 4.96417 1.22392 4.39352 1.66542C3.82288 2.10692 3.41496 2.72538 3.23379 3.42376H1.44308C1.22456 3.42376 1.01499 3.51057 0.860468 3.66509C0.705949 3.81961 0.619141 4.02918 0.619141 4.24771C0.619141 4.46623 0.705949 4.67581 0.860468 4.83032C1.01499 4.98484 1.22456 5.07165 1.44308 5.07165ZM25.6121 11.3611H23.8214C23.6402 10.6627 23.2323 10.0442 22.6617 9.60274C22.091 9.16124 21.3899 8.9217 20.6684 8.9217C19.9469 8.9217 19.2459 9.16124 18.6752 9.60274C18.1046 10.0442 17.6967 10.6627 17.5155 11.3611H1.44308C1.22456 11.3611 1.01499 11.4479 0.860468 11.6024C0.705949 11.7569 0.619141 11.9665 0.619141 12.185C0.619141 12.4036 0.705949 12.6131 0.860468 12.7676C1.01499 12.9222 1.22456 13.009 1.44308 13.009H17.5155C17.6967 13.7074 18.1046 14.3258 18.6752 14.7673C19.2459 15.2088 19.9469 15.4484 20.6684 15.4484C21.3899 15.4484 22.091 15.2088 22.6617 14.7673C23.2323 14.3258 23.6402 13.7074 23.8214 13.009H25.6121C25.8306 13.009 26.0402 12.9222 26.1947 12.7676C26.3492 12.6131 26.436 12.4036 26.436 12.185C26.436 11.9665 26.3492 11.7569 26.1947 11.6024C26.0402 11.4479 25.8306 11.3611 25.6121 11.3611Z" fill="#03344E"/>
</svg>
