<svg width="25" height="24" viewBox="0 0 25 24" fill="none" xmlns="http://www.w3.org/2000/svg">
<circle cx="12.3173" cy="12.0001" r="11.2501" transform="rotate(-180 12.3173 12.0001)" stroke="#0071B8" stroke-width="1.5"/>
<path d="M13.3964 18.3277C13.3964 18.9277 12.91 19.4141 12.31 19.4141C11.71 19.4141 11.2236 18.9277 11.2236 18.3277L11.2236 10.7229C11.2236 10.1229 11.71 9.63651 12.31 9.63651C12.91 9.63651 13.3964 10.1229 13.3964 10.7229L13.3964 18.3277Z" fill="#0071B8"/>
<path d="M12.322 7.48682L12.3111 7.48682C11.5131 7.48682 10.8662 6.83991 10.8662 6.0419L10.8662 6.03104C10.8662 5.23303 11.5131 4.58613 12.3111 4.58613L12.322 4.58613C13.12 4.58613 13.7669 5.23304 13.7669 6.03104L13.7669 6.0419C13.7669 6.83991 13.12 7.48682 12.322 7.48682Z" fill="#0071B8"/>
</svg>
