<svg width="24" height="17" viewBox="0 0 24 17" fill="none" xmlns="http://www.w3.org/2000/svg">
<path d="M2.07472 0.931158V0.931162H2.07728L22.2214 0.931167L22.224 0.931158C22.404 0.930544 22.5805 0.981025 22.733 1.07674C22.8855 1.17245 23.0077 1.30946 23.0854 1.47186C23.1631 1.63425 23.1931 1.81536 23.172 1.99416C23.1509 2.17295 23.0795 2.34207 22.966 2.48188L22.9628 2.48586L12.8914 15.0751C12.8913 15.0752 12.8913 15.0753 12.8912 15.0754C12.8021 15.1864 12.6892 15.276 12.5609 15.3375C12.4324 15.3992 12.2918 15.4312 12.1493 15.4312C12.0069 15.4312 11.8663 15.3992 11.7378 15.3375C11.6094 15.2759 11.4964 15.1862 11.4073 15.0751L1.33587 2.48586L1.33588 2.48585L1.33266 2.48188C1.21924 2.34207 1.14782 2.17294 1.12669 1.99416C1.10556 1.81537 1.1356 1.63426 1.21331 1.47186C1.29103 1.30946 1.41322 1.17245 1.5657 1.07674C1.71818 0.981025 1.89469 0.930544 2.07472 0.931158ZM2.07728 0.181162H22.2214C22.5434 0.180064 22.859 0.270342 23.1317 0.441508C23.4044 0.612673 23.6229 0.8577 23.7619 1.14812C23.9009 1.43854 23.9546 1.76243 23.9168 2.08217C23.879 2.4019 23.7513 2.70435 23.5485 2.95438L2.07728 0.181162Z" stroke="#03344E" stroke-width="1.5"/>
</svg>
