<svg width="224" height="228" viewBox="0 0 224 228" fill="none" xmlns="http://www.w3.org/2000/svg">
<path d="M196.776 185.516L195.632 184.545L195.631 184.547L196.776 185.516ZM189.962 185.945L190.997 184.859L190.994 184.856L189.962 185.945ZM166.623 163.851L165.59 164.938L165.592 164.94L166.623 163.851ZM166.161 157.608L167.323 158.556L167.323 158.556L166.161 157.608ZM180.158 123.254L178.665 123.108L178.665 123.111L180.158 123.254ZM184.863 119.122L184.875 117.622L184.863 117.622L184.863 119.122ZM217.481 119.368L217.496 117.868L217.492 117.868L217.481 119.368ZM222.099 124.304L223.594 124.424L223.594 124.423L222.099 124.304ZM193.134 188.714C194.914 188.714 196.68 187.952 197.921 186.485L195.631 184.547C194.976 185.321 194.058 185.714 193.134 185.714L193.134 188.714ZM188.928 187.031C190.119 188.166 191.634 188.714 193.134 188.714L193.134 185.714C192.366 185.714 191.603 185.437 190.997 184.859L188.928 187.031ZM165.592 164.94L188.931 187.034L190.994 184.856L167.654 162.761L165.592 164.94ZM164.999 156.659C162.958 159.16 163.313 162.776 165.59 164.938L167.656 162.763C166.457 161.624 166.326 159.778 167.323 158.556L164.999 156.659ZM178.665 123.111C177.429 135.949 172.69 147.225 164.998 156.66L167.323 158.556C175.39 148.661 180.359 136.824 181.651 123.398L178.665 123.111ZM184.83 117.622C181.808 117.622 178.969 120.009 178.665 123.108L181.651 123.401C181.795 121.929 183.259 120.622 184.83 120.622L184.83 117.622ZM184.863 117.622L184.83 117.622L184.83 120.622L184.863 120.622L184.863 117.622ZM217.492 117.868L184.875 117.622L184.852 120.622L217.47 120.868L217.492 117.868ZM223.594 124.423C223.879 120.853 220.987 117.902 217.496 117.868L217.466 120.868C219.31 120.886 220.743 122.438 220.604 124.185L223.594 124.423ZM197.919 186.487C212.361 169.474 221.698 148.002 223.594 124.424L220.604 124.184C218.759 147.115 209.681 167.996 195.632 184.545L197.919 186.487Z" fill="white"/>
<path d="M41.9535 200.257L42.9251 199.114L42.9232 199.113L41.9535 200.257ZM182.051 200.267L181.081 199.123L181.08 199.124L182.051 200.267ZM182.217 193.51L183.267 192.438L183.266 192.438L182.217 193.51ZM159.332 171.085L158.279 172.153L158.282 172.157L159.332 171.085ZM153.252 170.715L154.202 171.876L154.203 171.875L153.252 170.715ZM147.137 175.143L147.813 176.482L147.879 176.449L147.942 176.409L147.137 175.143ZM81.6082 177.853L80.9173 179.185L80.9506 179.202L80.9847 179.217L81.6082 177.853ZM70.6938 170.654L71.6441 169.493L71.6431 169.492L70.6938 170.654ZM64.616 171.026L65.6684 172.095L65.6725 172.091L64.616 171.026ZM41.7813 193.51L42.8327 194.58L42.8337 194.578L41.7813 193.51ZM112.005 224.5C85.6529 224.5 61.5439 214.945 42.9251 199.114L40.9819 201.4C60.1221 217.673 84.9138 227.5 112.005 227.5L112.005 224.5ZM181.08 199.124C162.459 214.945 138.352 224.5 112.005 224.5L112.005 227.5C139.091 227.5 163.88 217.673 183.023 201.41L181.08 199.124ZM181.166 194.581C182.48 195.869 182.415 197.991 181.081 199.123L183.022 201.41C185.773 199.075 185.773 194.896 183.267 192.438L181.166 194.581ZM158.282 172.157L181.167 194.581L183.266 192.438L160.382 170.014L158.282 172.157ZM156.037 171.231C156.848 171.231 157.664 171.546 158.279 172.153L160.386 170.018C159.194 168.841 157.614 168.231 156.037 168.231L156.037 171.231ZM154.203 171.875C154.73 171.443 155.373 171.231 156.037 171.231L156.037 168.231C154.73 168.231 153.401 168.652 152.301 169.555L154.203 171.875ZM147.942 176.409C150.109 175.03 152.197 173.517 154.202 171.876L152.302 169.554C150.387 171.121 148.396 172.564 146.331 173.878L147.942 176.409ZM80.9847 179.217C106.549 190.901 132.436 184.249 147.813 176.482L146.46 173.804C131.549 181.337 106.667 187.656 82.2317 176.489L80.9847 179.217ZM69.7435 171.814C73.2246 174.664 76.9568 177.13 80.9173 179.185L82.299 176.522C78.526 174.564 74.9673 172.214 71.6441 169.493L69.7435 171.814ZM67.9108 171.17C68.5738 171.17 69.2144 171.382 69.7445 171.815L71.6431 169.492C70.5459 168.595 69.2243 168.17 67.9108 168.17L67.9108 171.17ZM65.6725 172.091C66.2811 171.487 67.098 171.17 67.9108 171.17L67.9108 168.17C66.3321 168.17 64.7481 168.782 63.5596 169.961L65.6725 172.091ZM42.8337 194.578L65.6684 172.095L63.5636 169.957L40.7289 192.441L42.8337 194.578ZM42.9232 199.113C41.5909 197.984 41.5212 195.868 42.8327 194.58L40.73 192.44C38.2254 194.901 38.2359 199.073 40.9837 201.402L42.9232 199.113Z" fill="white"/>
<path d="M34.0241 185.943L32.9919 184.854L32.9895 184.857L34.0241 185.943ZM27.2246 185.513L28.3686 184.543L28.3682 184.543L27.2246 185.513ZM1.90168 124.278L3.39688 124.158L3.39667 124.156L1.90168 124.278ZM6.50542 119.361L6.49417 117.861L6.49078 117.861L6.50542 119.361ZM39.1891 119.115L39.1891 117.615L39.1779 117.615L39.1891 119.115ZM43.8306 123.2L42.3371 123.34L42.3373 123.341L43.8306 123.2ZM57.7527 157.672L58.916 156.725L58.9159 156.725L57.7527 157.672ZM57.2857 163.884L58.3178 164.972L58.3186 164.972L57.2857 163.884ZM30.8543 188.714C32.3586 188.714 33.8726 188.159 35.0587 187.029L32.9895 184.857C32.3831 185.434 31.6188 185.714 30.8543 185.714L30.8543 188.714ZM26.0806 186.484C27.318 187.943 29.0784 188.714 30.8543 188.714L30.8543 185.714C29.9462 185.714 29.0274 185.32 28.3686 184.543L26.0806 186.484ZM0.406477 124.398C2.29797 147.985 11.6366 169.467 26.081 186.484L28.3682 184.543C14.3175 167.989 5.23648 147.099 3.39688 124.158L0.406477 124.398ZM6.49078 117.861C3.01364 117.895 0.114439 120.833 0.406687 124.401L3.39667 124.156C3.25496 122.426 4.68121 120.879 6.52006 120.861L6.49078 117.861ZM39.1779 117.615L6.49417 117.861L6.51668 120.861L39.2004 120.615L39.1779 117.615ZM39.2245 117.615L39.1891 117.615L39.1891 120.615L39.2245 120.615L39.2245 117.615ZM45.3241 123.06C45.0278 119.897 42.2911 117.615 39.2245 117.615L39.2245 120.615C40.8465 120.615 42.1947 121.82 42.3371 123.34L45.3241 123.06ZM58.9159 156.725C51.2182 147.269 46.5419 135.938 45.3239 123.059L42.3373 123.341C43.6099 136.798 48.5089 148.693 56.5894 158.619L58.9159 156.725ZM58.3186 164.972C60.5877 162.817 60.9442 159.216 58.916 156.725L56.5894 158.619C57.5753 159.83 57.4459 161.663 56.2528 162.796L58.3186 164.972ZM35.0562 187.031L58.3178 164.972L56.2536 162.795L32.9919 184.854L35.0562 187.031Z" fill="white"/>
<path fill-rule="evenodd" clip-rule="evenodd" d="M27.2289 42.495C28.177 41.3747 29.519 40.7969 30.8704 40.7969C32.0048 40.7969 33.144 41.2096 34.0426 42.0657L57.382 64.1599C59.1202 65.8108 59.3631 68.542 57.8443 70.4028C49.9646 80.0678 45.1109 91.6244 43.8467 104.756C43.6227 107.042 41.4718 108.888 39.1746 108.888H39.1416L6.52389 108.643C3.85646 108.617 1.69374 106.365 1.906 103.707C3.77627 80.4523 12.9838 59.2755 27.2289 42.495Z" fill="white"/>
<path d="M27.2289 42.495L28.3725 43.4657L28.3739 43.464L27.2289 42.495ZM34.0426 42.0657L33.0079 43.1517L33.0114 43.1551L34.0426 42.0657ZM57.382 64.1599L58.415 63.0723L58.4132 63.0706L57.382 64.1599ZM57.8443 70.4028L56.6822 69.4543L56.6817 69.455L57.8443 70.4028ZM43.8467 104.756L45.3396 104.903L45.3398 104.9L43.8467 104.756ZM39.1416 108.888L39.1303 110.388H39.1416V108.888ZM6.52389 108.643L6.50931 110.143L6.51261 110.143L6.52389 108.643ZM1.906 103.707L0.410829 103.587L0.410761 103.587L1.906 103.707ZM30.8704 39.2969C29.0907 39.2969 27.3253 40.0592 26.0839 41.5259L28.3739 43.464C29.0288 42.6902 29.9473 42.2969 30.8704 42.2969V39.2969ZM35.0773 40.9797C33.8863 39.845 32.3711 39.2969 30.8704 39.2969V42.2969C31.6385 42.2969 32.4017 42.5742 33.0079 43.1517L35.0773 40.9797ZM58.4132 63.0706L35.0738 40.9764L33.0114 43.1551L56.3508 65.2492L58.4132 63.0706ZM59.0063 71.3513C61.0473 68.8508 60.6921 65.235 58.415 63.0723L56.349 65.2475C57.5484 66.3867 57.679 68.2331 56.6822 69.4543L59.0063 71.3513ZM45.3398 104.9C46.5757 92.0621 51.3148 80.7855 59.0069 71.3506L56.6817 69.455C48.6144 79.3501 43.6461 91.1866 42.3536 104.613L45.3398 104.9ZM39.1746 110.388C42.1972 110.388 45.0358 108.001 45.3396 104.903L42.3539 104.61C42.2096 106.082 40.7463 107.388 39.1746 107.388V110.388ZM39.1416 110.388H39.1746V107.388H39.1416V110.388ZM6.51261 110.143L39.1303 110.388L39.1529 107.388L6.53517 107.143L6.51261 110.143ZM0.410761 103.587C0.125671 107.157 3.01801 110.109 6.50931 110.143L6.53848 107.143C4.69491 107.125 3.26181 105.572 3.40124 103.826L0.410761 103.587ZM26.0854 41.5242C11.6434 58.5366 2.30711 80.0087 0.410829 103.587L3.40117 103.827C5.24544 80.8959 14.3241 60.0144 28.3725 43.4657L26.0854 41.5242Z" fill="white"/>
<path d="M182.056 27.7428L181.085 28.8855L181.087 28.8871L182.056 27.7428ZM41.9584 27.7333L42.929 28.8769L42.9296 28.8764L41.9584 27.7333ZM41.7933 34.4904L40.7432 35.5615L40.7434 35.5617L41.7933 34.4904ZM64.6775 56.9147L65.7312 55.8471L65.7274 55.8434L64.6775 56.9147ZM70.7577 57.285L69.8076 56.1242L69.8063 56.1253L70.7577 57.285ZM76.8707 52.8582L76.1943 51.5193L76.1279 51.5529L76.0651 51.5928L76.8707 52.8582ZM142.407 50.1497L143.098 48.8183L143.065 48.8011L143.031 48.7855L142.407 50.1497ZM153.316 57.3463L152.366 58.5069L152.367 58.5077L153.316 57.3463ZM159.394 56.9737L158.341 55.9048L158.337 55.9089L159.394 56.9737ZM182.228 34.4904L181.177 33.4205L181.176 33.4215L182.228 34.4904ZM112.005 3.5C138.357 3.5 162.466 13.0554 181.085 28.8855L183.028 26.6C163.888 10.3265 139.096 0.5 112.005 0.5V3.5ZM42.9296 28.8764C61.551 13.0554 85.6578 3.5 112.005 3.5V0.5C84.9186 0.5 60.1295 10.3266 40.9871 26.5902L42.9296 28.8764ZM42.8433 33.4192C41.5294 32.1312 41.595 30.0091 42.929 28.8769L40.9877 26.5897C38.2368 28.9245 38.2364 33.1042 40.7432 35.5615L42.8433 33.4192ZM65.7274 55.8434L42.8431 33.419L40.7434 35.5617L63.6277 57.9861L65.7274 55.8434ZM67.9723 56.7685C67.1618 56.7685 66.3457 56.4536 65.7312 55.8471L63.6238 57.9823C64.8159 59.1589 66.396 59.7685 67.9723 59.7685V56.7685ZM69.8063 56.1253C69.2797 56.5573 68.6364 56.7685 67.9723 56.7685V59.7685C69.2799 59.7685 70.6083 59.3477 71.709 58.4448L69.8063 56.1253ZM76.0651 51.5928C73.8996 52.9715 71.8125 54.4834 69.8076 56.1242L71.7077 58.4458C73.6217 56.8794 75.6124 55.4374 77.6762 54.1235L76.0651 51.5928ZM143.031 48.7855C117.463 37.0978 91.5721 43.7511 76.1943 51.5193L77.547 54.197C92.4598 46.6638 117.345 40.3425 141.784 51.5139L143.031 48.7855ZM154.266 56.1857C150.787 53.3369 147.057 50.8727 143.098 48.8183L141.716 51.4811C145.487 53.4382 149.044 55.7872 152.366 58.5069L154.266 56.1857ZM156.099 56.8298C155.436 56.8298 154.795 56.6183 154.265 56.1849L152.367 58.5077C153.464 59.4046 154.785 59.8298 156.099 59.8298V56.8298ZM158.337 55.9089C157.729 56.5127 156.912 56.8298 156.099 56.8298V59.8298C157.678 59.8298 159.262 59.2177 160.45 58.0385L158.337 55.9089ZM181.176 33.4215L158.341 55.9048L160.446 58.0425L183.281 35.5592L181.176 33.4215ZM181.087 28.8871C182.419 30.0162 182.489 32.1317 181.177 33.4205L183.28 35.5602C185.784 33.099 185.774 28.9269 183.026 26.5984L181.087 28.8871Z" fill="white"/>
<path d="M189.976 42.0574L191.008 43.1458L191.011 43.1434L189.976 42.0574ZM196.775 42.4866L195.631 43.4568L195.632 43.4573L196.775 42.4866ZM222.098 103.722L220.603 103.842L220.603 103.844L222.098 103.722ZM217.495 108.639L217.506 110.139L217.509 110.139L217.495 108.639ZM184.811 108.885V110.385L184.822 110.385L184.811 108.885ZM180.169 104.8L181.663 104.66L181.663 104.659L180.169 104.8ZM166.247 70.3283L165.084 71.2753L165.084 71.2753L166.247 70.3283ZM166.714 64.1161L165.682 63.0277L165.681 63.0284L166.714 64.1161ZM193.146 39.2861C191.641 39.2861 190.127 39.8414 188.941 40.9713L191.011 43.1434C191.617 42.5658 192.381 42.2861 193.146 42.2861V39.2861ZM197.919 41.5164C196.682 40.0573 194.922 39.2861 193.146 39.2861V42.2861C194.054 42.2861 194.973 42.68 195.631 43.4568L197.919 41.5164ZM223.594 103.602C221.702 80.0145 212.363 58.5331 197.919 41.5159L195.632 43.4573C209.683 60.0106 218.764 80.9014 220.603 103.842L223.594 103.602ZM217.509 110.139C220.986 110.105 223.886 107.167 223.593 103.599L220.603 103.844C220.745 105.574 219.319 107.121 217.48 107.139L217.509 110.139ZM184.822 110.385L217.506 110.139L217.483 107.139L184.8 107.385L184.822 110.385ZM184.776 110.385H184.811V107.385H184.776V110.385ZM178.676 104.94C178.972 108.103 181.709 110.385 184.776 110.385V107.385C183.153 107.385 181.805 106.18 181.663 104.66L178.676 104.94ZM165.084 71.2753C172.782 80.7312 177.458 92.0624 178.676 104.941L181.663 104.659C180.39 91.2024 175.491 79.3074 167.411 69.3814L165.084 71.2753ZM165.681 63.0284C163.412 65.1832 163.056 68.7837 165.084 71.2753L167.411 69.3814C166.425 68.1702 166.554 66.3368 167.747 65.2038L165.681 63.0284ZM188.944 40.9689L165.682 63.0277L167.746 65.2046L191.008 43.1458L188.944 40.9689Z" fill="white"/>
</svg>
