<svg width="11" height="19" viewBox="0 0 11 19" fill="none" xmlns="http://www.w3.org/2000/svg">
<path d="M0.390613 2.43027C0.390613 1.39752 1.22905 0.559082 2.2618 0.559082H8.81094C9.84369 0.559082 10.6821 1.39752 10.6821 2.43027V16.6081C10.6821 17.6408 9.84369 18.4793 8.81094 18.4793H2.2618C1.22905 18.4793 0.390613 17.6408 0.390613 16.6081V2.43027ZM9.81851 3.79767H1.25424V14.2691H9.81851V3.79767ZM2.2582 17.6157H8.81454C9.3687 17.6157 9.81851 17.1551 9.81851 16.6009V15.1327H1.25424V16.6009C1.25424 17.1551 1.70404 17.6157 2.2582 17.6157ZM1.25424 2.43746V2.93405H9.81851V2.43746C9.81851 1.88331 9.3687 1.42271 8.81454 1.42271H2.2582C1.70404 1.42271 1.25424 1.88331 1.25424 2.43746Z" fill="#03344E"/>
</svg>
