<svg width="238" height="242" viewBox="0 0 238 242" fill="none" xmlns="http://www.w3.org/2000/svg">
<path d="M208.747 196.704L207.604 195.733L207.602 195.735L208.747 196.704ZM201.534 197.158L202.569 196.072L202.565 196.069L201.534 197.158ZM176.826 173.769L175.793 174.856L175.795 174.858L176.826 173.769ZM176.337 167.16L177.499 168.108L177.499 168.107L176.337 167.16ZM191.155 130.792L189.662 130.645L189.662 130.648L191.155 130.792ZM196.136 126.417L196.148 124.917L196.136 124.917L196.136 126.417ZM230.666 126.677L230.681 125.177L230.678 125.177L230.666 126.677ZM235.555 131.903L237.05 132.023L237.05 132.022L235.555 131.903ZM204.892 200.001C206.751 200.001 208.595 199.205 209.892 197.673L207.602 195.735C206.892 196.574 205.895 197.001 204.892 197.001L204.892 200.001ZM200.5 198.244C201.743 199.429 203.325 200.001 204.892 200.001L204.892 197.001C204.058 197.001 203.228 196.7 202.569 196.072L200.5 198.244ZM175.795 174.858L200.503 198.248L202.565 196.069L177.857 172.679L175.795 174.858ZM175.175 166.211C173.045 168.821 173.414 172.597 175.793 174.856L177.859 172.681C176.558 171.445 176.413 169.438 177.499 168.108L175.175 166.211ZM189.662 130.648C188.352 144.256 183.328 156.21 175.174 166.212L177.499 168.107C186.029 157.646 191.282 145.132 192.648 130.936L189.662 130.648ZM196.101 124.917C192.944 124.917 189.979 127.413 189.662 130.645L192.648 130.938C192.805 129.332 194.395 127.917 196.101 127.917L196.101 124.917ZM196.136 124.917L196.101 124.917L196.101 127.917L196.136 127.917L196.136 124.917ZM230.678 125.177L196.148 124.918L196.125 127.917L230.655 128.177L230.678 125.177ZM237.05 132.022C237.348 128.296 234.329 125.213 230.681 125.177L230.652 128.177C232.652 128.197 234.212 129.882 234.06 131.783L237.05 132.022ZM209.891 197.675C225.168 179.678 235.044 156.965 237.05 132.023L234.06 131.783C232.106 156.077 222.487 178.2 207.604 195.733L209.891 197.675Z" fill="#F60000"/>
<path d="M44.8415 212.298L45.8131 211.155L45.8112 211.154L44.8415 212.298ZM193.154 212.308L192.183 211.165L192.183 211.165L193.154 212.308ZM193.329 205.155L194.379 204.084L194.379 204.084L193.329 205.155ZM169.103 181.416L168.049 182.483L168.053 182.487L169.103 181.416ZM162.666 181.024L163.616 182.185L163.617 182.183L162.666 181.024ZM156.166 185.729L156.841 187.068L156.908 187.034L156.97 186.994L156.166 185.729ZM86.8861 188.614L86.1967 189.946L86.2299 189.963L86.2639 189.979L86.8861 188.614ZM75.267 180.959L76.2173 179.798L76.2163 179.797L75.267 180.959ZM68.8328 181.353L69.8853 182.422L69.8893 182.418L68.8328 181.353ZM44.6592 205.155L45.7106 206.225L45.7116 206.224L44.6592 205.155ZM119 238.05C91.0815 238.05 65.5389 227.927 45.8131 211.155L43.8699 213.441C64.1171 230.656 90.3424 241.05 119 241.05L119 238.05ZM192.183 211.165C172.454 227.927 146.914 238.05 119 238.05L119 241.05C147.653 241.05 173.876 230.656 194.125 213.451L192.183 211.165ZM192.279 206.226C193.705 207.624 193.637 209.931 192.183 211.165L194.125 213.452C196.995 211.015 196.998 206.651 194.379 204.084L192.279 206.226ZM168.053 182.487L192.279 206.226L194.379 204.084L170.153 180.344L168.053 182.487ZM165.615 181.483C166.495 181.483 167.382 181.825 168.049 182.483L170.156 180.348C168.911 179.119 167.261 178.483 165.615 178.483L165.615 181.483ZM163.617 182.183C164.192 181.712 164.893 181.483 165.615 181.483L165.615 178.483C164.249 178.483 162.863 178.922 161.715 179.864L163.617 182.183ZM156.97 186.994C159.271 185.532 161.487 183.927 163.616 182.185L161.716 179.863C159.678 181.531 157.559 183.065 155.361 184.463L156.97 186.994ZM86.2639 189.979C113.258 202.284 140.587 195.271 156.841 187.068L155.49 184.389C139.7 192.358 113.375 199.04 87.5083 187.249L86.2639 189.979ZM74.3167 182.119C78.0166 185.149 81.9849 187.767 86.1967 189.946L87.5755 187.282C83.5522 185.2 79.7585 182.698 76.2173 179.798L74.3167 182.119ZM72.3208 181.418C73.0417 181.418 73.7399 181.648 74.3177 182.12L76.2163 179.797C75.0714 178.862 73.6922 178.418 72.3208 178.418L72.3208 181.418ZM69.8893 182.418C70.5506 181.762 71.4379 181.418 72.3208 181.418L72.3208 178.418C70.672 178.418 69.0176 179.057 67.7764 180.288L69.8893 182.418ZM45.7116 206.224L69.8852 182.422L67.7804 180.284L43.6068 204.086L45.7116 206.224ZM45.8112 211.154C44.3593 209.923 44.2872 207.623 45.7106 206.225L43.6079 204.085C40.9915 206.656 41.0043 211.013 43.8718 213.442L45.8112 211.154Z" fill="#F60000"/>
<path d="M36.4523 197.165L35.4202 196.077L35.4177 196.079L36.4523 197.165ZM29.2542 196.711L30.3982 195.74L30.3978 195.74L29.2542 196.711ZM2.44648 131.885L3.94168 131.765L3.94147 131.762L2.44648 131.885ZM7.32016 126.679L7.30891 125.179L7.30552 125.179L7.32016 126.679ZM41.9202 126.419L41.9202 124.919L41.909 124.919L41.9202 126.419ZM46.8339 130.744L45.3404 130.884L45.3405 130.885L46.8339 130.744ZM61.5722 167.236L62.7355 166.289L62.7355 166.289L61.5722 167.236ZM61.0779 173.813L62.11 174.901L62.1108 174.901L61.0779 173.813ZM33.0967 200.011C34.6675 200.011 36.2484 199.431 37.487 198.251L35.4177 196.079C34.7588 196.707 33.9278 197.011 33.0967 197.011L33.0967 200.011ZM28.1102 197.681C29.4032 199.205 31.2421 200.011 33.0967 200.011L33.0967 197.011C32.1099 197.011 31.1125 196.583 30.3982 195.74L28.1102 197.681ZM0.951281 132.005C2.95216 156.956 12.8308 179.68 28.1106 197.681L30.3978 195.74C15.5117 178.202 5.89067 156.069 3.94168 131.765L0.951281 132.005ZM7.30552 125.179C3.67253 125.215 0.646521 128.285 0.95149 132.007L3.94147 131.762C3.78704 129.877 5.3401 128.198 7.3348 128.179L7.30552 125.179ZM41.909 124.919L7.30891 125.179L7.33142 128.179L41.9315 127.919L41.909 124.919ZM41.9577 124.919L41.9202 124.919L41.9202 127.919L41.9577 127.919L41.9577 124.919ZM48.3273 130.604C48.0182 127.303 45.1618 124.919 41.9577 124.919L41.9577 127.919C43.7172 127.919 45.1851 129.226 45.3404 130.884L48.3273 130.604ZM62.7355 166.289C54.5752 156.265 49.6182 144.253 48.3272 130.603L45.3405 130.885C46.6861 145.113 51.8659 157.689 60.409 168.183L62.7355 166.289ZM62.1108 174.901C64.4814 172.649 64.8521 168.89 62.7355 166.289L60.4089 168.183C61.4832 169.503 61.3396 171.496 60.045 172.725L62.1108 174.901ZM37.4845 198.253L62.11 174.901L60.0457 172.724L35.4202 196.077L37.4845 198.253Z" fill="#F60000"/>
<path d="M29.2536 45.2703L30.3972 46.2411L30.3986 46.2393L29.2536 45.2703ZM36.4668 44.8159L35.4321 45.9019L35.4356 45.9052L36.4668 44.8159ZM61.1747 68.2056L62.2077 67.118L62.2059 67.1162L61.1747 68.2056ZM61.6641 74.8145L60.502 73.866L60.5015 73.8667L61.6641 74.8145ZM46.8458 111.182L48.3386 111.329L48.3389 111.326L46.8458 111.182ZM41.8648 115.557L41.8535 117.057H41.8648V115.557ZM7.33457 115.297L7.31998 116.797L7.32329 116.797L7.33457 115.297ZM2.44591 110.071L0.950736 109.951L0.950668 109.952L2.44591 110.071ZM33.1086 41.9727C31.2497 41.9727 29.4056 42.7688 28.1086 44.3013L30.3986 46.2393C31.1091 45.3999 32.1063 44.9727 33.1086 44.9727V41.9727ZM37.5015 43.7299C36.2578 42.545 34.6759 41.9727 33.1086 41.9727V44.9727C33.9433 44.9727 34.7732 45.2742 35.4321 45.9019L37.5015 43.7299ZM62.2059 67.1162L37.498 43.7266L35.4356 45.9052L60.1435 69.2949L62.2059 67.1162ZM62.8261 75.763C64.9561 73.1534 64.5867 69.3775 62.2077 67.118L60.1417 69.2932C61.443 70.5291 61.5878 72.5357 60.502 73.866L62.8261 75.763ZM48.3389 111.326C49.6489 97.7181 54.6726 85.7639 62.8267 75.7623L60.5015 73.8667C51.9722 84.3285 46.7193 96.8426 45.3527 111.039L48.3389 111.326ZM41.8997 117.057C45.057 117.057 48.0217 114.561 48.3386 111.329L45.353 111.036C45.1955 112.642 43.6061 114.057 41.8997 114.057V117.057ZM41.8648 117.057H41.8997V114.057H41.8648V117.057ZM7.32329 116.797L41.8535 117.057L41.876 114.057L7.34585 113.797L7.32329 116.797ZM0.950668 109.952C0.653132 113.678 3.67228 116.761 7.31998 116.797L7.34915 113.797C5.34918 113.778 3.78927 112.093 3.94115 110.191L0.950668 109.952ZM28.1101 44.2996C12.8328 62.2959 2.95667 85.0096 0.950736 109.951L3.94108 110.192C5.895 85.8968 15.5136 63.7737 30.3972 46.2411L28.1101 44.2996Z" fill="#F60000"/>
<path d="M193.159 29.676L192.188 30.8188L192.19 30.8204L193.159 29.676ZM44.847 29.666L45.8177 30.8096L45.8183 30.8091L44.847 29.666ZM44.6723 36.8192L43.6222 37.8904L43.6224 37.8906L44.6723 36.8192ZM68.8983 60.5584L69.952 59.4908L69.9482 59.4871L68.8983 60.5584ZM75.335 60.9504L74.385 59.7896L74.3836 59.7907L75.335 60.9504ZM81.8358 56.2453L81.16 54.9062L81.0936 54.9397L81.0309 54.9795L81.8358 56.2453ZM151.114 53.3597L151.803 52.0275L151.77 52.0103L151.736 51.9948L151.114 53.3597ZM162.734 61.0153L161.784 62.1759L161.785 62.1767L162.734 61.0153ZM169.168 60.6209L168.116 59.552L168.112 59.556L169.168 60.6209ZM193.342 36.8192L192.29 35.7493L192.289 35.7504L193.342 36.8192ZM119.001 3.92383C146.919 3.92383 172.462 14.0475 192.188 30.8188L194.131 28.5332C173.884 11.3186 147.659 0.923828 119.001 0.923828V3.92383ZM45.8183 30.8091C65.5468 14.0474 91.0871 3.92383 119.001 3.92383V0.923828C90.3479 0.923828 64.1253 11.3186 43.8758 28.5229L45.8183 30.8091ZM45.7223 35.748C44.2964 34.3503 44.364 32.0434 45.8177 30.8096L43.8764 28.5224C41.0057 30.9588 41.0034 35.3233 43.6222 37.8904L45.7223 35.748ZM69.9482 59.4871L45.7221 35.7479L43.6224 37.8906L67.8485 61.6298L69.9482 59.4871ZM72.3863 60.4916C71.5058 60.4916 70.6194 60.1496 69.952 59.4908L67.8446 61.626C69.0897 62.8548 70.74 63.4916 72.3863 63.4916V60.4916ZM74.3836 59.7907C73.8093 60.2618 73.1082 60.4916 72.3863 60.4916V63.4916C73.7517 63.4916 75.1379 63.0522 76.2863 62.1102L74.3836 59.7907ZM81.0309 54.9795C78.7306 56.4423 76.514 58.0472 74.385 59.7896L76.285 62.1112C78.3228 60.4435 80.4426 58.9088 82.6407 57.5111L81.0309 54.9795ZM151.736 51.9948C124.742 39.6906 97.4145 46.7033 81.16 54.9062L82.5116 57.5845C98.3014 49.6161 124.626 42.9344 150.492 54.7246L151.736 51.9948ZM163.684 59.8547C159.984 56.8251 156.016 54.207 151.803 52.0275L150.425 54.6919C154.448 56.7738 158.242 59.2762 161.784 62.1759L163.684 59.8547ZM165.68 60.5565C164.959 60.5565 164.261 60.3263 163.683 59.854L161.785 62.1767C162.93 63.1126 164.309 63.5565 165.68 63.5565V60.5565ZM168.112 59.556C167.45 60.2121 166.563 60.5565 165.68 60.5565V63.5565C167.329 63.5565 168.983 62.9171 170.225 61.6857L168.112 59.556ZM192.289 35.7504L168.116 59.552L170.221 61.6897L194.394 37.8881L192.289 35.7504ZM192.19 30.8204C193.642 32.0508 193.714 34.3506 192.29 35.7493L194.393 37.8891C197.01 35.318 196.997 30.9615 194.129 28.5316L192.19 30.8204Z" fill="#F60000"/>
<path d="M201.548 44.8091L202.58 45.8976L202.582 45.8952L201.548 44.8091ZM208.746 45.2635L207.602 46.2338L207.602 46.2342L208.746 45.2635ZM235.554 110.089L234.058 110.209L234.059 110.212L235.554 110.089ZM230.68 115.295L230.691 116.795L230.694 116.795L230.68 115.295ZM196.08 115.555V117.055L196.091 117.055L196.08 115.555ZM191.166 111.23L192.66 111.09L192.659 111.089L191.166 111.23ZM176.428 74.7378L175.264 75.6847L175.264 75.6848L176.428 74.7378ZM176.922 68.1613L175.89 67.0729L175.889 67.0736L176.922 68.1613ZM204.903 41.9634C203.332 41.9634 201.752 42.5431 200.513 43.7231L202.582 45.8952C203.241 45.2675 204.072 44.9634 204.903 44.9634V41.9634ZM209.89 44.2933C208.597 42.7687 206.758 41.9634 204.903 41.9634V44.9634C205.89 44.9634 206.887 45.3914 207.602 46.2338L209.89 44.2933ZM237.049 109.969C235.048 85.0179 225.169 62.2942 209.889 44.2929L207.602 46.2342C222.488 63.7717 232.109 85.9047 234.058 110.209L237.049 109.969ZM230.694 116.795C234.327 116.76 237.353 113.689 237.049 109.967L234.059 110.212C234.213 112.097 232.66 113.776 230.665 113.795L230.694 116.795ZM196.091 117.055L230.691 116.795L230.669 113.795L196.069 114.055L196.091 117.055ZM196.042 117.055H196.08V114.055H196.042V117.055ZM189.673 111.37C189.982 114.671 192.838 117.055 196.042 117.055V114.055C194.283 114.055 192.815 112.748 192.66 111.09L189.673 111.37ZM175.264 75.6848C183.425 85.7089 188.382 97.721 189.673 111.372L192.659 111.089C191.314 96.861 186.134 84.285 177.591 73.7908L175.264 75.6848ZM175.889 67.0736C173.519 69.3247 173.148 73.0846 175.264 75.6847L177.591 73.7908C176.517 72.4711 176.66 70.4784 177.955 69.249L175.889 67.0736ZM200.516 43.7207L175.89 67.0729L177.954 69.2497L202.58 45.8976L200.516 43.7207Z" fill="#F60000"/>
<path d="M96.2069 126.832H101.269V132.286H96.2069V141.347H89.411V132.286H71.8198L71.624 128.147L89.1872 100.627H96.2069V126.832ZM78.7556 126.832H89.411V109.828L88.9076 110.723L78.7556 126.832Z" fill="#03344E"/>
<path d="M132.312 124.203C132.312 130.058 131.212 134.476 129.012 137.46C126.831 140.424 123.503 141.906 119.028 141.906C114.628 141.906 111.309 140.461 109.072 137.571C106.853 134.663 105.716 130.365 105.66 124.679V117.631C105.66 111.777 106.75 107.386 108.932 104.459C111.132 101.531 114.479 100.068 118.972 100.068C123.428 100.068 126.747 101.494 128.928 104.347C131.128 107.199 132.256 111.469 132.312 117.156V124.203ZM125.516 116.596C125.516 112.774 124.994 109.977 123.95 108.206C122.906 106.416 121.247 105.521 118.972 105.521C116.753 105.521 115.122 106.37 114.078 108.066C113.034 109.744 112.484 112.373 112.428 115.953V125.182C112.428 128.986 112.959 131.82 114.022 133.684C115.085 135.549 116.753 136.481 119.028 136.481C121.209 136.481 122.822 135.623 123.866 133.908C124.91 132.174 125.46 129.47 125.516 125.797V116.596Z" fill="#03344E"/>
<path d="M161.314 126.832H166.376V132.286H161.314V141.347H154.518V132.286H136.927L136.731 128.147L154.294 100.627H161.314V126.832ZM143.863 126.832H154.518V109.828L154.015 110.723L143.863 126.832Z" fill="#03344E"/>
</svg>
