<svg width="73" height="73" viewBox="0 0 73 73" fill="none" xmlns="http://www.w3.org/2000/svg">
<g clip-path="url(#clip0)">
<path fill-rule="evenodd" clip-rule="evenodd" d="M24.676 0.90625H48.8829C52.8139 0.90625 56.1242 4.0097 56.1242 7.94073V65.6649C56.1242 69.5959 52.8139 72.9063 48.8829 72.9063H24.676C20.7449 72.9063 17.6415 69.5959 17.6415 65.6649V7.94073C17.6415 4.0097 20.7449 0.90625 24.676 0.90625ZM37.0898 64.8373C38.3311 64.8373 39.3656 65.8718 39.3656 67.1131C39.3656 68.3545 38.3311 69.389 37.0898 69.389C35.8484 69.389 34.8139 68.3545 34.8139 67.1131C34.8139 65.8718 35.8484 64.8373 37.0898 64.8373ZM35.0208 6.28556C33.9863 6.28556 33.9863 4.63039 35.0208 4.63039H42.0553C43.0897 4.63039 43.0897 6.28556 42.0553 6.28556H35.0208ZM31.7104 4.63039C32.1242 4.63039 32.538 4.83728 32.538 5.45797C32.538 5.87177 32.1242 6.28556 31.7104 6.28556C31.2966 6.28556 30.8829 5.87177 30.8829 5.45797C30.8829 4.83728 31.2966 4.63039 31.7104 4.63039ZM53.8484 9.18211V62.3545H19.9173V9.18211H53.8484Z" fill="#03344E"/>
</g>
<defs>
<clipPath id="clip0">
<rect width="72" height="72" fill="white" transform="translate(0.882812 0.90625)"/>
</clipPath>
</defs>
</svg>
