<svg width="12" height="17" viewBox="0 0 12 17" fill="none" xmlns="http://www.w3.org/2000/svg">
<path d="M11.2774 5.44427C11.3695 5.53633 11.397 5.67453 11.3472 5.79476C11.2973 5.91498 11.1802 5.99318 11.05 5.99318H0.348845C0.218875 5.99318 0.101468 5.91476 0.0518626 5.79454C0.00204059 5.67432 0.0295511 5.53612 0.121614 5.44405L5.19935 0.36632C5.47553 0.0901328 5.92328 0.0901328 6.19969 0.36632L11.2774 5.44427Z" fill="#0071B8"/>
<path d="M0.11966 10.8736C0.027598 10.7816 8.74605e-05 10.6434 0.0499095 10.5231C0.0997315 10.4029 0.216922 10.3247 0.346892 10.3247H11.0484C11.1786 10.3247 11.2958 10.4029 11.3456 10.5231C11.3953 10.6434 11.368 10.7816 11.2759 10.8736L6.19795 15.9518C5.92176 16.228 5.4738 16.2278 5.19761 15.9518L0.11966 10.8736Z" fill="#0071B8"/>
</svg>
