<svg width="72" height="36" viewBox="0 0 72 36" fill="none" xmlns="http://www.w3.org/2000/svg">
<path d="M9.56741 15.9385L15.8041 21.8451C13.3963 25.0305 11.9127 28.6734 11.3858 32.7006L2.6369 32.6343C3.31852 26.4997 5.69959 20.7655 9.56741 15.9385ZM9.4965 13.1099C9.05963 13.1099 8.62581 13.2967 8.31931 13.6588C3.71422 19.0835 0.737682 25.9294 0.133073 33.447C0.0644541 34.3063 0.763605 35.0344 1.62592 35.0428L12.1704 35.1221C12.1742 35.1221 12.178 35.1221 12.181 35.1221C12.9236 35.1221 13.619 34.5251 13.6914 33.7863C14.1001 29.5411 15.6692 25.8051 18.2164 22.6807C18.7074 22.0791 18.6289 21.1962 18.067 20.6625L10.522 13.5201C10.2315 13.2433 9.86323 13.1099 9.4965 13.1099Z" fill="#20AB2C"/>
<path d="M61.8864 15.9393C65.7527 20.7655 68.1322 26.5013 68.8154 32.6343L60.068 32.7006C59.5434 28.6529 58.0704 25.0016 55.6779 21.8268L61.8864 15.9393ZM61.9573 13.1069C61.5905 13.1069 61.2223 13.2418 60.9326 13.5178L53.4127 20.6488C52.8531 21.1803 52.7745 22.0586 53.2617 22.6571C55.8121 25.7899 57.3598 29.5441 57.7624 33.8008C57.8333 34.5579 58.4935 35.1213 59.2514 35.1213C59.256 35.1213 59.259 35.1213 59.2628 35.1213L69.8286 35.042C70.6879 35.0337 71.387 34.3086 71.3169 33.4524C70.7138 25.9317 67.7365 19.0828 63.1307 13.6566C62.8242 13.2952 62.3911 13.1069 61.9573 13.1069Z" fill="#20AB2C"/>
<path d="M58.3709 8.89667C52.2676 3.70755 44.3635 0.574707 35.7251 0.574707C27.0883 0.574707 19.1849 3.70755 13.0809 8.89362C12.4206 9.45401 12.4099 10.4726 13.0275 11.078L20.4254 18.3272C20.7174 18.6154 21.1047 18.7648 21.4905 18.7648C21.8092 18.7648 22.1279 18.6627 22.3909 18.4469C24.9436 16.3578 27.9132 14.9336 31.2222 14.2604L31.6621 11.7314C27.9415 12.3429 24.5044 13.8014 21.5424 16.0437L15.449 10.0716C21.1985 5.49774 28.357 2.98933 35.7251 2.98933C43.0948 2.98933 50.2548 5.49774 56.0051 10.0762L49.9254 16.0605C47.2615 14.0423 44.2186 12.6593 40.9348 11.9517L41.3831 14.5333C44.2384 15.2874 46.8246 16.6201 49.0799 18.4667C49.3429 18.6817 49.6601 18.7847 49.9796 18.7847C50.3661 18.7847 50.7542 18.6345 51.0447 18.3463L58.4266 11.078C59.0434 10.4719 59.0304 9.45553 58.3709 8.89667Z" fill="#20AB2C"/>
<path d="M21.6006 16.0517C26.3969 12.7077 38.7583 8.02614 49.8329 16.0517" stroke="#20AB2C"/>
<path d="M21.6006 18.068C26.3969 14.7241 38.7583 10.0425 49.8329 18.068" stroke="#20AB2C"/>
<rect x="31.4699" y="12.5873" width="1.9434" height="0.832386" fill="#20AB2C" stroke="#20AB2C" stroke-width="0.832386"/>
<rect x="33.6105" y="12.1874" width="1.9434" height="0.832386" fill="#20AB2C" stroke="#20AB2C" stroke-width="0.832386"/>
<rect x="35.9626" y="12.1874" width="1.9434" height="0.832386" fill="#20AB2C" stroke="#20AB2C" stroke-width="0.832386"/>
<rect x="38.362" y="12.1874" width="1.9434" height="0.832386" fill="#20AB2C" stroke="#20AB2C" stroke-width="0.832386"/>
<rect x="39.4914" y="12.5873" width="1.9434" height="0.832386" fill="#20AB2C" stroke="#20AB2C" stroke-width="0.832386"/>
<path d="M9.48022 14.9941C4.50673 17.0499 2.18577 28.1186 1.64697 33.396L12.34 34.0177V32.4428L14.0393 26.8476L17.1063 22.2057L9.48022 14.9941Z" fill="#20AB2C"/>
<path d="M19.864 5.22041L13.9131 9.55952L20.9797 17.122L26.0627 14.3946L32.2614 12.535H41.8075L49.6179 17.122L57.1804 9.55952L53.957 6.95608L48.8741 3.98068L38.8321 1.3772L28.4182 2.24499L19.864 5.22041Z" fill="#20AB2C"/>
<path d="M62.1602 14.5159L54.3647 21.5267L55.2541 23.4625L57.8701 28.0143L59.1781 34.0311H69.8512V32.0429L67.9154 25.9739L65.4564 19.3293L62.1602 14.5159Z" fill="#20AB2C"/>
</svg>
