<svg width="31" height="31" viewBox="0 0 31 31" fill="none" xmlns="http://www.w3.org/2000/svg">
<g clip-path="url(#clip0)">
<path d="M14.5858 14.9176H15.4003C15.912 14.9098 16.3144 14.775 16.6073 14.5133C16.9003 14.2516 17.0468 13.8981 17.0468 13.4527C17.0468 12.4527 16.5487 11.9527 15.5526 11.9527C15.0839 11.9527 14.7089 12.0875 14.4276 12.357C14.1503 12.6227 14.0116 12.9762 14.0116 13.4176H12.9276C12.9276 12.7418 13.1737 12.1813 13.6659 11.7359C14.162 11.2867 14.7909 11.0621 15.5526 11.0621C16.3573 11.0621 16.9882 11.275 17.4452 11.7008C17.9023 12.1266 18.1308 12.7184 18.1308 13.4762C18.1308 13.8473 18.0097 14.2066 17.7675 14.5543C17.5292 14.902 17.203 15.1617 16.789 15.3336C17.2577 15.482 17.619 15.7281 17.873 16.0719C18.1308 16.4156 18.2597 16.8356 18.2597 17.3316C18.2597 18.0973 18.0097 18.7047 17.5097 19.1539C17.0097 19.6031 16.3593 19.8277 15.5585 19.8277C14.7577 19.8277 14.1054 19.6109 13.6015 19.1774C13.1015 18.7438 12.8515 18.1715 12.8515 17.4606H13.9413C13.9413 17.9098 14.0878 18.2691 14.3808 18.5387C14.6737 18.8082 15.0663 18.943 15.5585 18.943C16.0819 18.943 16.4823 18.8063 16.7597 18.5328C17.037 18.2594 17.1757 17.8668 17.1757 17.3551C17.1757 16.859 17.0233 16.4781 16.7187 16.2125C16.414 15.9469 15.9745 15.8102 15.4003 15.8024H14.5858V14.9176Z" fill="#333333"/>
<path fill-rule="evenodd" clip-rule="evenodd" d="M3.62217 5.64361C3.75563 5.48591 3.94454 5.40456 4.13475 5.40456C4.29443 5.40456 4.4548 5.46266 4.58129 5.5832L7.86667 8.6935C8.11132 8.9259 8.14551 9.31039 7.93175 9.57231C6.82257 10.9329 6.13933 12.5598 5.96135 14.4084C5.9298 14.7301 5.62704 14.9901 5.30368 14.9901H5.29906L0.707637 14.9555C0.332155 14.9519 0.0277203 14.6349 0.0575995 14.2607C0.320868 10.987 1.61695 8.00592 3.62217 5.64361Z" fill="#E0E0E0"/>
<path fill-rule="evenodd" clip-rule="evenodd" d="M15.5565 -0.055069C19.3179 -0.055069 22.7597 1.30917 25.4173 3.56885C25.7044 3.81222 25.7101 4.25479 25.4415 4.51875L22.2272 7.68387C22.1007 7.80936 21.9317 7.87477 21.7634 7.87477C21.6243 7.87477 21.4861 7.82997 21.3716 7.73631C20.8899 7.34187 20.3736 7.00124 19.8257 6.71783C16.3122 5.1166 12.7461 6.02651 10.6157 7.10139C10.3163 7.29174 10.0277 7.50067 9.75034 7.72768C9.63579 7.82162 9.497 7.86614 9.35826 7.86614C9.19028 7.86614 9.02159 7.80106 8.89445 7.67557L5.67317 4.51875C5.40428 4.25514 5.4089 3.81155 5.69642 3.56752C8.35429 1.30917 11.7957 -0.055069 15.5565 -0.055069Z" fill="#E0E0E0"/>
<path fill-rule="evenodd" clip-rule="evenodd" d="M26.5318 5.58124C26.6579 5.46103 26.8183 5.40221 26.9779 5.40221C27.1669 5.40221 27.3553 5.48428 27.4888 5.64165C29.4944 8.00456 30.7908 10.9871 31.0534 14.262C31.084 14.6349 30.7795 14.9506 30.4053 14.9542L25.8047 14.9888H25.7997C25.4697 14.9888 25.1822 14.7434 25.1513 14.4138C24.976 12.5601 24.3021 10.9253 23.1916 9.56106C22.9794 9.30046 23.0136 8.91795 23.2573 8.68654L26.5318 5.58124Z" fill="#E0E0E0"/>
<path fill-rule="evenodd" clip-rule="evenodd" d="M3.62217 25.2472C3.75563 25.4049 3.94454 25.4863 4.13475 25.4863C4.29443 25.4863 4.4548 25.4282 4.58129 25.3076L7.86667 22.1973C8.11132 21.9649 8.14551 21.5804 7.93175 21.3185C6.82257 19.9579 6.13933 18.3311 5.96135 16.4824C5.9298 16.1607 5.62704 15.9007 5.30368 15.9007H5.29906L0.707637 15.9353C0.332155 15.9389 0.0277203 16.2559 0.0575995 16.6302C0.320868 19.9038 1.61695 22.8849 3.62217 25.2472Z" fill="#E0E0E0"/>
<path fill-rule="evenodd" clip-rule="evenodd" d="M15.5555 30.9449C19.317 30.9449 22.7587 29.5807 25.4163 27.321C25.7035 27.0776 25.7091 26.6351 25.4406 26.3711L22.2262 23.206C22.0997 23.0805 21.9307 23.0151 21.7625 23.0151C21.6233 23.0151 21.4852 23.0599 21.3707 23.1536C20.889 23.548 20.3726 23.8886 19.8248 24.172C16.3112 25.7733 12.7452 24.8634 10.6148 23.7885C10.3154 23.5981 10.0268 23.3892 9.74939 23.1622C9.63484 23.0682 9.49605 23.0237 9.35731 23.0237C9.18933 23.0237 9.02064 23.0888 8.8935 23.2143L5.67223 26.3711C5.40334 26.6347 5.40796 27.0783 5.69548 27.3223C8.35334 29.5807 11.7948 30.9449 15.5555 30.9449Z" fill="#E0E0E0"/>
<path fill-rule="evenodd" clip-rule="evenodd" d="M26.5318 25.3086C26.6579 25.4288 26.8183 25.4876 26.9779 25.4876C27.1669 25.4876 27.3553 25.4056 27.4888 25.2482C29.4944 22.8853 30.7908 19.9028 31.0534 16.6279C31.084 16.255 30.7795 15.9392 30.4053 15.9356L25.8047 15.9011H25.7997C25.4697 15.9011 25.1822 16.1464 25.1513 16.4761C24.976 18.3297 24.3021 19.9645 23.1916 21.3288C22.9794 21.5894 23.0136 21.9719 23.2573 22.2033L26.5318 25.3086Z" fill="#E0E0E0"/>
</g>
<defs>
<clipPath id="clip0">
<rect width="31" height="31" fill="white"/>
</clipPath>
</defs>
</svg>
