<svg width="565" height="276" viewBox="0 0 565 276" fill="none" xmlns="http://www.w3.org/2000/svg">
<path fill-rule="evenodd" clip-rule="evenodd" d="M65.6481 104.033C68.0761 101.164 71.5128 99.6836 74.9734 99.6836C77.8783 99.6836 80.7959 100.741 83.0972 102.934L142.867 159.519C147.318 163.747 147.94 170.742 144.051 175.507C123.872 200.26 111.442 229.857 108.204 263.489C107.63 269.342 102.122 274.072 96.2394 274.072H96.1554L12.6246 273.443C5.79352 273.377 0.25501 267.609 0.798595 260.801C5.58819 201.244 29.1676 147.01 65.6481 104.033Z" fill="#20AB2C"/>
<path fill-rule="evenodd" clip-rule="evenodd" d="M282.749 0.375C351.18 0.375 413.795 25.1943 462.144 66.3042C467.368 70.7317 467.471 78.7833 462.585 83.5855L404.107 141.168C401.806 143.451 398.731 144.641 395.67 144.641C393.139 144.641 390.626 143.826 388.543 142.122C379.779 134.946 370.385 128.749 360.418 123.593C296.497 94.462 231.621 111.016 192.863 130.571C187.416 134.034 182.165 137.835 177.119 141.965C175.035 143.674 172.51 144.484 169.986 144.484C166.93 144.484 163.861 143.3 161.548 141.017L102.944 83.5855C98.0525 78.7897 98.1365 70.7196 103.367 66.28C151.721 25.1943 214.33 0.375 282.749 0.375Z" fill="#20AB2C"/>
<path fill-rule="evenodd" clip-rule="evenodd" d="M482.438 102.915C484.733 100.728 487.65 99.6582 490.555 99.6582C493.992 99.6582 497.421 101.151 499.85 104.014C536.336 147.002 559.922 201.262 564.7 260.842C565.255 267.626 559.716 273.37 552.909 273.436L469.21 274.064H469.12C463.116 274.064 457.885 269.601 457.323 263.603C454.134 229.88 441.874 200.139 421.671 175.319C417.811 170.578 418.433 163.619 422.866 159.409L482.438 102.915Z" fill="#20AB2C"/>
<path d="M304.194 160.836V176.392H301.873C291.347 176.547 282.937 179.436 276.643 185.06C270.348 190.684 266.607 198.655 265.421 208.974C271.457 202.628 279.171 199.455 288.561 199.455C298.519 199.455 306.361 202.963 312.088 209.98C317.867 216.997 320.756 226.052 320.756 237.145C320.756 248.599 317.377 257.886 310.618 265.006C303.911 272.075 295.088 275.609 284.15 275.609C272.902 275.609 263.77 271.456 256.753 263.149C249.787 254.842 246.305 243.956 246.305 230.489V224.066C246.305 204.305 251.103 188.826 260.7 177.63C270.348 166.434 284.201 160.836 302.26 160.836H304.194ZM283.995 214.624C279.867 214.624 276.075 215.785 272.618 218.106C269.213 220.428 266.711 223.524 265.111 227.394V233.121C265.111 241.479 266.865 248.135 270.374 253.088C273.882 257.989 278.423 260.44 283.995 260.44C289.567 260.44 293.979 258.351 297.229 254.171C300.479 249.992 302.105 244.497 302.105 237.687C302.105 230.876 300.454 225.33 297.152 221.047C293.85 216.765 289.464 214.624 283.995 214.624Z" fill="#333333"/>
</svg>
