<svg width="565" height="276" viewBox="0 0 565 276" fill="none" xmlns="http://www.w3.org/2000/svg">
<path fill-rule="evenodd" clip-rule="evenodd" d="M65.6481 104.193C68.0761 101.324 71.5128 99.8438 74.9734 99.8438C77.8783 99.8438 80.7959 100.901 83.0972 103.094L142.867 159.679C147.318 163.907 147.94 170.902 144.051 175.667C123.872 200.42 111.442 230.017 108.204 263.649C107.63 269.502 102.122 274.232 96.2394 274.232H96.1554L12.6246 273.603C5.79352 273.537 0.25501 267.769 0.798595 260.961C5.58819 201.404 29.1676 147.17 65.6481 104.193Z" fill="#F2994A"/>
<path fill-rule="evenodd" clip-rule="evenodd" d="M282.749 0.535156C351.18 0.535156 413.795 25.3545 462.144 66.4644C467.368 70.8919 467.471 78.9435 462.585 83.7457L404.107 141.328C401.806 143.611 398.731 144.801 395.67 144.801C393.139 144.801 390.626 143.986 388.543 142.282C379.779 135.106 370.385 128.909 360.418 123.753C296.497 94.6222 231.621 111.176 192.863 130.731C187.416 134.194 182.165 137.995 177.119 142.125C175.035 143.834 172.51 144.644 169.986 144.644C166.93 144.644 163.861 143.46 161.548 141.177L102.944 83.7457C98.0525 78.9499 98.1365 70.8798 103.367 66.4402C151.721 25.3545 214.33 0.535156 282.749 0.535156Z" fill="#F2994A"/>
<path fill-rule="evenodd" clip-rule="evenodd" d="M482.438 103.075C484.733 100.888 487.65 99.8184 490.555 99.8184C493.992 99.8184 497.421 101.311 499.85 104.174C536.336 147.162 559.922 201.422 564.7 261.002C565.255 267.786 559.716 273.53 552.909 273.596L469.21 274.224H469.12C463.116 274.224 457.885 269.761 457.323 263.763C454.134 230.04 441.874 200.299 421.671 175.479C417.811 170.738 418.433 163.779 422.866 159.569L482.438 103.075Z" fill="#F2994A"/>
<path d="M304.194 160.996V176.552H301.873C291.347 176.707 282.937 179.596 276.643 185.22C270.348 190.844 266.607 198.815 265.421 209.134C271.457 202.788 279.171 199.615 288.561 199.615C298.519 199.615 306.361 203.123 312.088 210.14C317.867 217.157 320.756 226.212 320.756 237.305C320.756 248.759 317.377 258.046 310.618 265.167C303.911 272.235 295.088 275.769 284.15 275.769C272.902 275.769 263.77 271.616 256.753 263.309C249.787 255.002 246.305 244.116 246.305 230.649V224.226C246.305 204.465 251.103 188.986 260.7 177.79C270.348 166.594 284.201 160.996 302.26 160.996H304.194ZM283.995 214.784C279.867 214.784 276.075 215.945 272.618 218.267C269.213 220.588 266.711 223.684 265.111 227.554V233.281C265.111 241.639 266.865 248.295 270.374 253.248C273.882 258.15 278.423 260.6 283.995 260.6C289.567 260.6 293.979 258.511 297.229 254.332C300.479 250.152 302.105 244.657 302.105 237.847C302.105 231.036 300.454 225.49 297.152 221.208C293.85 216.925 289.464 214.784 283.995 214.784Z" fill="#333333"/>
</svg>
