<svg width="565" height="276" viewBox="0 0 565 276" fill="none" xmlns="http://www.w3.org/2000/svg">
<path fill-rule="evenodd" clip-rule="evenodd" d="M65.6481 103.786C68.0761 100.917 71.5128 99.4365 74.9734 99.4365C77.8783 99.4365 80.7959 100.494 83.0972 102.687L142.867 159.272C147.318 163.5 147.94 170.495 144.051 175.26C123.872 200.013 111.442 229.61 108.204 263.242C107.63 269.095 102.122 273.825 96.2394 273.825H96.1554L12.6246 273.196C5.79352 273.13 0.25501 267.362 0.798595 260.554C5.58819 200.997 29.1676 146.763 65.6481 103.786Z" fill="#E0E0E0"/>
<path fill-rule="evenodd" clip-rule="evenodd" d="M282.749 0.12793C351.18 0.12793 413.795 24.9473 462.144 66.0572C467.368 70.4847 467.471 78.5363 462.585 83.3385L404.107 140.921C401.806 143.204 398.731 144.394 395.67 144.394C393.139 144.394 390.626 143.579 388.543 141.875C379.779 134.699 370.385 128.502 360.418 123.346C296.497 94.215 231.621 110.769 192.863 130.324C187.416 133.787 182.165 137.588 177.119 141.718C175.035 143.427 172.51 144.237 169.986 144.237C166.93 144.237 163.861 143.053 161.548 140.77L102.944 83.3385C98.0525 78.5427 98.1365 70.4726 103.367 66.033C151.721 24.9473 214.33 0.12793 282.749 0.12793Z" fill="#E0E0E0"/>
<path fill-rule="evenodd" clip-rule="evenodd" d="M482.438 102.668C484.733 100.481 487.65 99.4111 490.555 99.4111C493.992 99.4111 497.421 100.904 499.85 103.767C536.336 146.755 559.922 201.015 564.7 260.595C565.255 267.379 559.716 273.123 552.909 273.189L469.21 273.817H469.12C463.116 273.817 457.885 269.354 457.323 263.356C454.134 229.633 441.874 199.892 421.671 175.072C417.811 170.331 418.433 163.372 422.866 159.162L482.438 102.668Z" fill="#E0E0E0"/>
<path d="M304.194 160.588V176.144H301.873C291.347 176.299 282.937 179.188 276.643 184.812C270.348 190.436 266.607 198.407 265.421 208.726C271.457 202.38 279.171 199.207 288.561 199.207C298.519 199.207 306.361 202.715 312.088 209.732C317.867 216.749 320.756 225.804 320.756 236.897C320.756 248.351 317.377 257.638 310.618 264.758C303.911 271.827 295.088 275.361 284.15 275.361C272.902 275.361 263.77 271.208 256.753 262.901C249.787 254.594 246.305 243.708 246.305 230.241V223.818C246.305 204.057 251.103 188.578 260.7 177.382C270.348 166.186 284.201 160.588 302.26 160.588H304.194ZM283.995 214.376C279.867 214.376 276.075 215.537 272.618 217.858C269.213 220.18 266.711 223.276 265.111 227.146V232.873C265.111 241.231 266.865 247.887 270.374 252.84C273.882 257.741 278.423 260.192 283.995 260.192C289.567 260.192 293.979 258.103 297.229 253.923C300.479 249.744 302.105 244.249 302.105 237.439C302.105 230.628 300.454 225.082 297.152 220.799C293.85 216.517 289.464 214.376 283.995 214.376Z" fill="#333333"/>
</svg>
