<svg width="565" height="276" viewBox="0 0 565 276" fill="none" xmlns="http://www.w3.org/2000/svg">
<path fill-rule="evenodd" clip-rule="evenodd" d="M65.6481 104.41C68.0761 101.541 71.5128 100.061 74.9734 100.061C77.8783 100.061 80.7959 101.118 83.0972 103.311L142.867 159.896C147.318 164.124 147.94 171.119 144.051 175.884C123.872 200.637 111.442 230.234 108.204 263.866C107.63 269.719 102.122 274.449 96.2394 274.449H96.1554L12.6246 273.82C5.79352 273.754 0.25501 267.986 0.798595 261.178C5.58819 201.621 29.1676 147.387 65.6481 104.41Z" fill="#828282"/>
<path fill-rule="evenodd" clip-rule="evenodd" d="M282.749 0.751953C351.18 0.751953 413.795 25.5713 462.144 66.6812C467.368 71.1087 467.471 79.1603 462.585 83.9625L404.107 141.545C401.806 143.828 398.731 145.018 395.67 145.018C393.139 145.018 390.626 144.203 388.543 142.499C379.779 135.323 370.385 129.126 360.418 123.97C296.497 94.839 231.621 111.393 192.863 130.948C187.416 134.411 182.165 138.212 177.119 142.342C175.035 144.051 172.51 144.861 169.986 144.861C166.93 144.861 163.861 143.677 161.548 141.394L102.944 83.9625C98.0525 79.1667 98.1365 71.0966 103.367 66.657C151.721 25.5713 214.33 0.751953 282.749 0.751953Z" fill="#828282"/>
<path fill-rule="evenodd" clip-rule="evenodd" d="M482.438 103.292C484.733 101.105 487.65 100.035 490.555 100.035C493.992 100.035 497.421 101.528 499.85 104.391C536.336 147.379 559.922 201.639 564.7 261.219C565.255 268.003 559.716 273.747 552.909 273.813L469.21 274.441H469.12C463.116 274.441 457.885 269.978 457.323 263.98C454.134 230.257 441.874 200.516 421.671 175.696C417.811 170.955 418.433 163.996 422.866 159.786L482.438 103.292Z" fill="#828282"/>
<path d="M304.194 161.211V176.767H301.873C291.347 176.922 282.937 179.811 276.643 185.435C270.348 191.059 266.607 199.03 265.421 209.349C271.457 203.003 279.171 199.83 288.561 199.83C298.519 199.83 306.361 203.338 312.088 210.355C317.867 217.372 320.756 226.427 320.756 237.52C320.756 248.974 317.377 258.261 310.618 265.381C303.911 272.45 295.088 275.984 284.15 275.984C272.902 275.984 263.77 271.831 256.753 263.524C249.787 255.217 246.305 244.331 246.305 230.864V224.441C246.305 204.68 251.103 189.201 260.7 178.005C270.348 166.809 284.201 161.211 302.26 161.211H304.194ZM283.995 214.999C279.867 214.999 276.075 216.16 272.618 218.481C269.213 220.803 266.711 223.899 265.111 227.769V233.496C265.111 241.854 266.865 248.51 270.374 253.463C273.882 258.364 278.423 260.815 283.995 260.815C289.567 260.815 293.979 258.726 297.229 254.546C300.479 250.367 302.105 244.872 302.105 238.062C302.105 231.251 300.454 225.705 297.152 221.422C293.85 217.14 289.464 214.999 283.995 214.999Z" fill="#333333"/>
</svg>
